<?xml version="1.0" encoding="UTF-8"?><svg xmlns="http://www.w3.org/2000/svg" xmlns:xlink="http://www.w3.org/1999/xlink" fill-opacity="1" color-rendering="auto" color-interpolation="auto" text-rendering="auto" stroke="black" stroke-linecap="square" width="924" stroke-miterlimit="10" shape-rendering="auto" stroke-opacity="1" fill="black" stroke-dasharray="none" font-weight="normal" stroke-width="1" height="342" font-family="'Dialog'" font-style="normal" stroke-linejoin="miter" font-size="12px" stroke-dashoffset="0" image-rendering="auto">
  <!--Generated by ySVG 2.6-->
  <defs id="genericDefs"/>
  <g>
    <defs id="defs1">
      <clipPath clipPathUnits="userSpaceOnUse" id="clipPath1">
        <path d="M0 0 L924 0 L924 342 L0 342 L0 0 Z"/>
      </clipPath>
      <clipPath clipPathUnits="userSpaceOnUse" id="clipPath2">
        <path d="M696 459 L1158 459 L1158 630 L696 630 L696 459 Z"/>
      </clipPath>
    </defs>
    <g fill="white" text-rendering="geometricPrecision" shape-rendering="geometricPrecision" transform="scale(2,2) translate(-696,-459)" stroke="white">
      <rect x="696" width="462" height="171" y="459" clip-path="url(#clipPath2)" stroke="none"/>
    </g>
    <g text-rendering="geometricPrecision" stroke-miterlimit="1.45" shape-rendering="geometricPrecision" transform="matrix(2,0,0,2,-1392,-918)" stroke-linecap="butt">
      <path fill="none" d="M1020.516 555.238 L1020.516 593.8467" clip-path="url(#clipPath2)"/>
      <path d="M1020.516 601.8467 L1025.516 589.8467 L1020.516 592.8467 L1015.516 589.8467 Z" clip-path="url(#clipPath2)" stroke="none"/>
      <text x="1024.516" xml:space="preserve" y="583.2543" clip-path="url(#clipPath2)" font-family="sans-serif" stroke="none">existsIn</text>
      <path fill="none" d="M882.9592 616.8204 L980.5112 616.8204" clip-path="url(#clipPath2)"/>
      <path d="M988.5112 616.8204 L976.5112 611.8204 L979.5112 616.8204 L976.5112 621.8204 Z" clip-path="url(#clipPath2)" stroke="none"/>
      <rect x="913.3752" y="607.4699" clip-path="url(#clipPath2)" fill="white" width="44.6816" height="18.7012" stroke="none"/>
      <text x="915.3752" xml:space="preserve" y="621.5343" clip-path="url(#clipPath2)" font-family="sans-serif" stroke="none">existsIn</text>
      <path fill="none" d="M1052.5323 545.2604 L1065 545.2604 L1065 518 L1020.516 518 L1020.516 527.2774" clip-path="url(#clipPath2)"/>
      <path d="M1020.516 535.2774 L1025.516 523.2774 L1020.516 526.2774 L1015.516 523.2774 Z" clip-path="url(#clipPath2)" stroke="none"/>
      <text x="1067.7009" xml:space="preserve" y="528.9935" clip-path="url(#clipPath2)" font-family="sans-serif" stroke="none">hasProcessPart</text>
      <text x="1068.0291" xml:space="preserve" y="543.6947" clip-path="url(#clipPath2)" font-family="sans-serif" stroke="none">leadsTo/causes</text>
      <path fill="none" d="M882.9095 606.8204 L924.14 606.8204 L998.127 559.5614" clip-path="url(#clipPath2)"/>
      <path d="M1004.869 555.2549 L992.0645 557.5009 L997.2843 560.0997 L997.4476 565.9283 Z" clip-path="url(#clipPath2)" stroke="none"/>
      <rect x="919.6708" y="576.2524" clip-path="url(#clipPath2)" fill="white" width="75.373" height="18.7012" stroke="none"/>
      <text x="921.6708" xml:space="preserve" y="590.3168" clip-path="url(#clipPath2)" font-family="sans-serif" stroke="none">participatesIn</text>
      <path fill="none" d="M890.9592 550.2604 L980.5112 550.2604" clip-path="url(#clipPath2)"/>
      <path d="M882.9592 550.2604 L894.9592 555.2604 L891.9592 550.2604 L894.9592 545.2604 Z" clip-path="url(#clipPath2)" stroke="none"/>
      <path d="M988.5112 550.2604 L976.5112 545.2604 L979.5112 550.2604 L976.5112 555.2604 Z" clip-path="url(#clipPath2)" stroke="none"/>
      <text x="893.6926" xml:space="preserve" y="566.3249" clip-path="url(#clipPath2)" font-family="sans-serif" stroke="none">leadsTo/causes</text>
      <path fill="none" d="M988.529 540.2604 L890.9658 540.2604" clip-path="url(#clipPath2)"/>
      <path d="M882.9658 540.2604 L894.9658 545.2604 L891.9658 540.2604 L894.9658 535.2604 Z" clip-path="url(#clipPath2)" stroke="none"/>
      <text x="893.3644" xml:space="preserve" y="533.6237" clip-path="url(#clipPath2)" font-family="sans-serif" stroke="none">hasProcessPart</text>
      <path fill="none" d="M808.2901 545.2604 L795 545.2604 L795 518 L845.5912 518 L845.5912 527.2774" clip-path="url(#clipPath2)"/>
      <path d="M845.5912 535.2774 L850.5912 523.2774 L845.5912 526.2774 L840.5912 523.2774 Z" clip-path="url(#clipPath2)" stroke="none"/>
      <text x="701.2918" xml:space="preserve" y="528.9935" clip-path="url(#clipPath2)" font-family="sans-serif" stroke="none">hasSituationPart</text>
      <text x="703.2957" xml:space="preserve" y="543.6947" clip-path="url(#clipPath2)" font-family="sans-serif" stroke="none">leadsTo/causes</text>
      <path fill="none" d="M845.5912 601.843 L845.5912 563.2343" clip-path="url(#clipPath2)"/>
      <path d="M845.5912 555.2343 L840.5912 567.2343 L845.5912 564.2343 L850.5912 567.2343 Z" clip-path="url(#clipPath2)" stroke="none"/>
      <text x="770.2181" xml:space="preserve" y="583.2543" clip-path="url(#clipPath2)" font-family="sans-serif" stroke="none">participatesIn</text>
      <path fill="none" d="M864.2161 535.2535 L864.2161 472.3005 L891.1135 472.3005" clip-path="url(#clipPath2)"/>
      <path d="M899.1135 472.3005 L887.1135 467.3005 L890.1135 472.3005 L887.1135 477.3005 Z" clip-path="url(#clipPath2)" stroke="none"/>
      <rect x="818.1887" y="489.8674" clip-path="url(#clipPath2)" fill="white" width="92.0547" height="18.7012" stroke="none"/>
      <text x="820.1887" xml:space="preserve" y="503.9318" clip-path="url(#clipPath2)" font-family="sans-serif" stroke="none">hasSituationPart</text>
      <path fill="none" d="M1006.0568 535.2676 L1006.0568 472.3005 L981.8123 472.3005" clip-path="url(#clipPath2)"/>
      <path d="M973.8123 472.3005 L985.8123 477.3005 L982.8123 472.3005 L985.8123 467.3005 Z" clip-path="url(#clipPath2)" stroke="none"/>
      <rect x="961.7053" y="489.8674" clip-path="url(#clipPath2)" fill="white" width="88.7031" height="18.7012" stroke="none"/>
      <text x="963.7053" xml:space="preserve" y="503.9318" clip-path="url(#clipPath2)" font-family="sans-serif" stroke="none">hasProcessPart</text>
      <text x="993.8558" y="616.5343" clip-path="url(#clipPath2)" font-family="sans-serif" stroke="none" font-weight="bold" xml:space="preserve">Chronoid</text>
      <rect x="988.492" y="601.8205" clip-path="url(#clipPath2)" fill="none" width="64.048" rx="4" ry="4" height="20" stroke="rgb(43,138,132)"/>
    </g>
    <g fill="rgb(247,149,29)" text-rendering="geometricPrecision" shape-rendering="geometricPrecision" transform="matrix(2,0,0,2,-1392,-918)" stroke="rgb(247,149,29)">
      <rect x="988.492" y="535.2605" clip-path="url(#clipPath2)" width="64.048" rx="4" ry="4" height="20" stroke="none"/>
    </g>
    <g stroke-linecap="butt" transform="matrix(2,0,0,2,-1392,-918)" fill="white" text-rendering="geometricPrecision" font-family="sans-serif" shape-rendering="geometricPrecision" stroke="white" font-weight="bold" stroke-miterlimit="1.45">
      <text x="997.1664" xml:space="preserve" y="549.9743" clip-path="url(#clipPath2)" stroke="none">Process</text>
    </g>
    <g stroke-linecap="butt" transform="matrix(2,0,0,2,-1392,-918)" fill="rgb(247,149,29)" text-rendering="geometricPrecision" shape-rendering="geometricPrecision" stroke="rgb(247,149,29)" stroke-miterlimit="1.45">
      <rect x="988.492" y="535.2605" clip-path="url(#clipPath2)" fill="none" width="64.048" rx="4" ry="4" height="20"/>
    </g>
    <g fill="rgb(157,64,95)" text-rendering="geometricPrecision" shape-rendering="geometricPrecision" transform="matrix(2,0,0,2,-1392,-918)" stroke="rgb(157,64,95)">
      <rect x="808.2424" y="535.2605" clip-path="url(#clipPath2)" width="74.6976" rx="4" ry="4" height="20" stroke="none"/>
    </g>
    <g stroke-linecap="butt" transform="matrix(2,0,0,2,-1392,-918)" fill="white" text-rendering="geometricPrecision" font-family="sans-serif" shape-rendering="geometricPrecision" stroke="white" font-weight="bold" stroke-miterlimit="1.45">
      <text x="819.9271" xml:space="preserve" y="549.9743" clip-path="url(#clipPath2)" stroke="none">Situation</text>
    </g>
    <g stroke-linecap="butt" transform="matrix(2,0,0,2,-1392,-918)" fill="rgb(157,64,95)" text-rendering="geometricPrecision" shape-rendering="geometricPrecision" stroke="rgb(157,64,95)" stroke-miterlimit="1.45">
      <rect x="808.2424" y="535.2605" clip-path="url(#clipPath2)" fill="none" width="74.6976" rx="4" ry="4" height="20"/>
    </g>
    <g fill="rgb(73,114,136)" text-rendering="geometricPrecision" shape-rendering="geometricPrecision" transform="matrix(2,0,0,2,-1392,-918)" stroke="rgb(73,114,136)">
      <rect x="899.1224" y="462.3005" clip-path="url(#clipPath2)" width="74.6976" rx="4" ry="4" height="20" stroke="none"/>
    </g>
    <g stroke-linecap="butt" transform="matrix(2,0,0,2,-1392,-918)" fill="white" text-rendering="geometricPrecision" font-family="sans-serif" shape-rendering="geometricPrecision" stroke="white" font-weight="bold" stroke-miterlimit="1.45">
      <text x="906.4712" xml:space="preserve" y="477.0143" clip-path="url(#clipPath2)" stroke="none">Attributive</text>
    </g>
    <g stroke-linecap="butt" transform="matrix(2,0,0,2,-1392,-918)" fill="rgb(73,114,136)" text-rendering="geometricPrecision" shape-rendering="geometricPrecision" stroke="rgb(73,114,136)" stroke-miterlimit="1.45">
      <rect x="899.1224" y="462.3005" clip-path="url(#clipPath2)" fill="none" width="74.6976" rx="4" ry="4" height="20"/>
    </g>
    <g fill="rgb(243,101,35)" text-rendering="geometricPrecision" shape-rendering="geometricPrecision" transform="matrix(2,0,0,2,-1392,-918)" stroke="rgb(243,101,35)">
      <rect x="808.2424" y="601.8205" clip-path="url(#clipPath2)" width="74.6976" rx="4" ry="4" height="20" stroke="none"/>
    </g>
    <g stroke-linecap="butt" transform="matrix(2,0,0,2,-1392,-918)" fill="white" text-rendering="geometricPrecision" font-family="sans-serif" shape-rendering="geometricPrecision" stroke="white" font-weight="bold" stroke-miterlimit="1.45">
      <text x="813.933" xml:space="preserve" y="616.5343" clip-path="url(#clipPath2)" stroke="none">Continuant</text>
    </g>
    <g stroke-linecap="butt" transform="matrix(2,0,0,2,-1392,-918)" fill="rgb(243,101,35)" text-rendering="geometricPrecision" shape-rendering="geometricPrecision" stroke="rgb(243,101,35)" stroke-miterlimit="1.45">
      <rect x="808.2424" y="601.8205" clip-path="url(#clipPath2)" fill="none" width="74.6976" rx="4" ry="4" height="20"/>
    </g>
  </g>
</svg>
