<?xml version="1.0" encoding="UTF-8"?><svg xmlns="http://www.w3.org/2000/svg" xmlns:xlink="http://www.w3.org/1999/xlink" fill-opacity="1" color-rendering="auto" color-interpolation="auto" text-rendering="auto" stroke="black" stroke-linecap="square" width="877" stroke-miterlimit="10" shape-rendering="auto" stroke-opacity="1" fill="black" stroke-dasharray="none" font-weight="normal" stroke-width="1" height="473" font-family="'Dialog'" font-style="normal" stroke-linejoin="miter" font-size="12px" stroke-dashoffset="0" image-rendering="auto">
  <!--Generated by ySVG 2.6-->
  <defs id="genericDefs"/>
  <g>
    <defs id="defs1">
      <clipPath clipPathUnits="userSpaceOnUse" id="clipPath1">
        <path d="M0 0 L877 0 L877 473 L0 473 L0 0 Z"/>
      </clipPath>
      <clipPath clipPathUnits="userSpaceOnUse" id="clipPath2">
        <path d="M-116 -490 L761 -490 L761 -17 L-116 -17 L-116 -490 Z"/>
      </clipPath>
    </defs>
    <g fill="white" text-rendering="geometricPrecision" shape-rendering="geometricPrecision" transform="translate(116,490)" stroke="white">
      <rect x="-116" width="877" height="473" y="-490" clip-path="url(#clipPath2)" stroke="none"/>
    </g>
    <g fill="rgb(150,150,150)" text-rendering="geometricPrecision" shape-rendering="geometricPrecision" transform="matrix(1,0,0,1,116,490)" stroke="rgb(150,150,150)">
      <rect x="363.372" y="-460.0995" clip-path="url(#clipPath2)" width="70" rx="4" ry="4" height="20" stroke="none"/>
    </g>
    <g stroke-linecap="butt" transform="matrix(1,0,0,1,116,490)" fill="white" text-rendering="geometricPrecision" font-family="sans-serif" shape-rendering="geometricPrecision" stroke="white" font-weight="bold" stroke-miterlimit="1.45">
      <text x="372.3678" xml:space="preserve" y="-447.3515" clip-path="url(#clipPath2)" stroke="none">Category</text>
    </g>
    <g stroke-linecap="butt" transform="matrix(1,0,0,1,116,490)" fill="rgb(150,150,150)" text-rendering="geometricPrecision" shape-rendering="geometricPrecision" stroke="rgb(150,150,150)" stroke-miterlimit="1.45">
      <rect x="363.372" y="-460.0995" clip-path="url(#clipPath2)" fill="none" width="70" rx="4" ry="4" height="20"/>
    </g>
    <g stroke-linecap="butt" transform="matrix(1,0,0,1,116,490)" text-rendering="geometricPrecision" font-family="sans-serif" shape-rendering="geometricPrecision" font-weight="bold" stroke-miterlimit="1.45">
      <text x="668.4558" xml:space="preserve" y="-349.0315" clip-path="url(#clipPath2)" stroke="none">Chronoid</text>
    </g>
    <g stroke-linecap="butt" transform="matrix(1,0,0,1,116,490)" fill="rgb(43,138,132)" text-rendering="geometricPrecision" shape-rendering="geometricPrecision" stroke="rgb(43,138,132)" stroke-miterlimit="1.45">
      <rect x="649.56" y="-361.7795" clip-path="url(#clipPath2)" fill="none" width="91.12" rx="4" ry="4" height="20"/>
    </g>
    <g fill="rgb(247,149,29)" text-rendering="geometricPrecision" shape-rendering="geometricPrecision" transform="matrix(1,0,0,1,116,490)" stroke="rgb(247,149,29)">
      <rect x="483.624" y="-357.3795" clip-path="url(#clipPath2)" width="108.048" rx="4" ry="4" height="20" stroke="none"/>
    </g>
    <g stroke-linecap="butt" transform="matrix(1,0,0,1,116,490)" fill="white" text-rendering="geometricPrecision" font-family="sans-serif" shape-rendering="geometricPrecision" stroke="white" font-weight="bold" stroke-miterlimit="1.45">
      <text x="488.9637" xml:space="preserve" y="-344.6315" clip-path="url(#clipPath2)" stroke="none">ProcessualEntity</text>
    </g>
    <g stroke-linecap="butt" transform="matrix(1,0,0,1,116,490)" fill="rgb(247,149,29)" text-rendering="geometricPrecision" shape-rendering="geometricPrecision" stroke="rgb(247,149,29)" stroke-miterlimit="1.45">
      <rect x="483.624" y="-357.3795" clip-path="url(#clipPath2)" fill="none" width="108.048" rx="4" ry="4" height="20"/>
    </g>
    <g fill="rgb(150,150,150)" text-rendering="geometricPrecision" shape-rendering="geometricPrecision" transform="matrix(1,0,0,1,116,490)" stroke="rgb(150,150,150)">
      <rect x="450.633" y="-489.0995" clip-path="url(#clipPath2)" width="70" rx="4" ry="4" height="20" stroke="none"/>
    </g>
    <g stroke-linecap="butt" transform="matrix(1,0,0,1,116,490)" fill="white" text-rendering="geometricPrecision" font-family="sans-serif" shape-rendering="geometricPrecision" stroke="white" font-weight="bold" stroke-miterlimit="1.45">
      <text x="468.9649" xml:space="preserve" y="-476.3515" clip-path="url(#clipPath2)" stroke="none">Entity</text>
    </g>
    <g stroke-linecap="butt" transform="matrix(1,0,0,1,116,490)" fill="rgb(150,150,150)" text-rendering="geometricPrecision" shape-rendering="geometricPrecision" stroke="rgb(150,150,150)" stroke-miterlimit="1.45">
      <rect x="450.633" y="-489.0995" clip-path="url(#clipPath2)" fill="none" width="70" rx="4" ry="4" height="20"/>
    </g>
    <g fill="rgb(157,64,95)" text-rendering="geometricPrecision" shape-rendering="geometricPrecision" transform="matrix(1,0,0,1,116,490)" stroke="rgb(157,64,95)">
      <rect x="363.672" y="-357.3795" clip-path="url(#clipPath2)" width="69.4" rx="4" ry="4" height="20" stroke="none"/>
    </g>
    <g stroke-linecap="butt" transform="matrix(1,0,0,1,116,490)" fill="white" text-rendering="geometricPrecision" font-family="sans-serif" shape-rendering="geometricPrecision" stroke="white" font-weight="bold" stroke-miterlimit="1.45">
      <text x="372.7038" xml:space="preserve" y="-344.6315" clip-path="url(#clipPath2)" stroke="none">Situation</text>
    </g>
    <g stroke-linecap="butt" transform="matrix(1,0,0,1,116,490)" fill="rgb(157,64,95)" text-rendering="geometricPrecision" shape-rendering="geometricPrecision" stroke="rgb(157,64,95)" stroke-miterlimit="1.45">
      <rect x="363.672" y="-357.3795" clip-path="url(#clipPath2)" fill="none" width="69.4" rx="4" ry="4" height="20"/>
    </g>
    <g stroke-linecap="butt" transform="matrix(1,0,0,1,116,490)" text-rendering="geometricPrecision" font-family="sans-serif" shape-rendering="geometricPrecision" font-weight="bold" stroke-miterlimit="1.45">
      <text x="531.3099" xml:space="preserve" y="-264.6315" clip-path="url(#clipPath2)" stroke="none">Event</text>
    </g>
    <g stroke-linecap="butt" transform="matrix(1,0,0,1,116,490)" fill="rgb(247,149,29)" text-rendering="geometricPrecision" shape-rendering="geometricPrecision" stroke="rgb(247,149,29)" stroke-miterlimit="1.45">
      <rect x="503.624" y="-277.3795" clip-path="url(#clipPath2)" fill="none" width="88.048" rx="4" ry="4" height="20"/>
    </g>
    <g fill="rgb(150,150,150)" text-rendering="geometricPrecision" shape-rendering="geometricPrecision" transform="matrix(1,0,0,1,116,490)" stroke="rgb(150,150,150)">
      <rect x="333.972" y="-401.7795" clip-path="url(#clipPath2)" width="128.8" rx="4" ry="4" height="20" stroke="none"/>
    </g>
    <g stroke-linecap="butt" transform="matrix(1,0,0,1,116,490)" fill="white" text-rendering="geometricPrecision" font-family="sans-serif" shape-rendering="geometricPrecision" stroke="white" font-weight="bold" stroke-miterlimit="1.45">
      <text x="344.3596" xml:space="preserve" y="-389.0315" clip-path="url(#clipPath2)" stroke="none">ConcreteIndividual</text>
    </g>
    <g stroke-linecap="butt" transform="matrix(1,0,0,1,116,490)" fill="rgb(150,150,150)" text-rendering="geometricPrecision" shape-rendering="geometricPrecision" stroke="rgb(150,150,150)" stroke-miterlimit="1.45">
      <rect x="333.972" y="-401.7795" clip-path="url(#clipPath2)" fill="none" width="128.8" rx="4" ry="4" height="20"/>
    </g>
    <g stroke-linecap="butt" transform="matrix(1,0,0,1,116,490)" text-rendering="geometricPrecision" font-family="sans-serif" shape-rendering="geometricPrecision" font-weight="bold" stroke-miterlimit="1.45">
      <text x="524.3018" xml:space="preserve" y="-304.6315" clip-path="url(#clipPath2)" stroke="none">Process</text>
    </g>
    <g stroke-linecap="butt" transform="matrix(1,0,0,1,116,490)" fill="rgb(247,149,29)" text-rendering="geometricPrecision" shape-rendering="geometricPrecision" stroke="rgb(247,149,29)" stroke-miterlimit="1.45">
      <rect x="503.624" y="-317.3795" clip-path="url(#clipPath2)" fill="none" width="88.048" rx="4" ry="4" height="20"/>
    </g>
    <g fill="rgb(43,138,132)" text-rendering="geometricPrecision" shape-rendering="geometricPrecision" transform="matrix(1,0,0,1,116,490)" stroke="rgb(43,138,132)">
      <rect x="649.56" y="-401.7795" clip-path="url(#clipPath2)" width="111.12" rx="4" ry="4" height="20" stroke="none"/>
    </g>
    <g stroke-linecap="butt" transform="matrix(1,0,0,1,116,490)" fill="white" text-rendering="geometricPrecision" font-family="sans-serif" shape-rendering="geometricPrecision" stroke="white" font-weight="bold" stroke-miterlimit="1.45">
      <text x="674.4478" xml:space="preserve" y="-389.0315" clip-path="url(#clipPath2)" stroke="none">TimeEntity</text>
    </g>
    <g stroke-linecap="butt" transform="matrix(1,0,0,1,116,490)" fill="rgb(43,138,132)" text-rendering="geometricPrecision" shape-rendering="geometricPrecision" stroke="rgb(43,138,132)" stroke-miterlimit="1.45">
      <rect x="649.56" y="-401.7795" clip-path="url(#clipPath2)" fill="none" width="111.12" rx="4" ry="4" height="20"/>
    </g>
    <g stroke-linecap="butt" transform="matrix(1,0,0,1,116,490)" text-rendering="geometricPrecision" font-family="sans-serif" shape-rendering="geometricPrecision" font-weight="bold" stroke-miterlimit="1.45">
      <text x="653.1137" xml:space="preserve" y="-309.0315" clip-path="url(#clipPath2)" stroke="none">TimeBoundary</text>
    </g>
    <g stroke-linecap="butt" transform="matrix(1,0,0,1,116,490)" fill="rgb(43,138,132)" text-rendering="geometricPrecision" shape-rendering="geometricPrecision" stroke="rgb(43,138,132)" stroke-miterlimit="1.45">
      <rect x="649.56" y="-321.7795" clip-path="url(#clipPath2)" fill="none" width="91.12" rx="4" ry="4" height="20"/>
    </g>
    <g stroke-linecap="butt" transform="matrix(1,0,0,1,116,490)" text-rendering="geometricPrecision" font-family="sans-serif" shape-rendering="geometricPrecision" font-weight="bold" stroke-miterlimit="1.45">
      <text x="191.4456" xml:space="preserve" y="-104.6315" clip-path="url(#clipPath2)" stroke="none">ContinuantPartRole</text>
    </g>
    <g stroke-linecap="butt" transform="matrix(1,0,0,1,116,490)" fill="rgb(73,114,136)" text-rendering="geometricPrecision" shape-rendering="geometricPrecision" stroke="rgb(73,114,136)" stroke-miterlimit="1.45">
      <rect x="185" y="-117.3795" clip-path="url(#clipPath2)" fill="none" width="125.56" rx="4" ry="4" height="20"/>
    </g>
    <g stroke-linecap="butt" transform="matrix(1,0,0,1,116,490)" text-rendering="geometricPrecision" font-family="sans-serif" shape-rendering="geometricPrecision" font-weight="bold" stroke-miterlimit="1.45">
      <text x="217.1099" xml:space="preserve" y="-264.6315" clip-path="url(#clipPath2)" stroke="none">Relator</text>
    </g>
    <g stroke-linecap="butt" transform="matrix(1,0,0,1,116,490)" fill="rgb(73,114,136)" text-rendering="geometricPrecision" shape-rendering="geometricPrecision" stroke="rgb(73,114,136)" stroke-miterlimit="1.45">
      <rect x="165" y="-277.3795" clip-path="url(#clipPath2)" fill="none" width="145.56" rx="4" ry="4" height="20"/>
    </g>
    <g stroke-linecap="butt" transform="matrix(1,0,0,1,116,490)" text-rendering="geometricPrecision" font-family="sans-serif" shape-rendering="geometricPrecision" font-weight="bold" stroke-miterlimit="1.45">
      <text x="224.7779" xml:space="preserve" y="-224.6315" clip-path="url(#clipPath2)" stroke="none">Role</text>
    </g>
    <g stroke-linecap="butt" transform="matrix(1,0,0,1,116,490)" fill="rgb(73,114,136)" text-rendering="geometricPrecision" shape-rendering="geometricPrecision" stroke="rgb(73,114,136)" stroke-miterlimit="1.45">
      <rect x="165" y="-237.3795" clip-path="url(#clipPath2)" fill="none" width="145.56" rx="4" ry="4" height="20"/>
    </g>
    <g stroke-linecap="butt" transform="matrix(1,0,0,1,116,490)" text-rendering="geometricPrecision" font-family="sans-serif" shape-rendering="geometricPrecision" font-weight="bold" stroke-miterlimit="1.45">
      <text x="202.7617" xml:space="preserve" y="-144.6315" clip-path="url(#clipPath2)" stroke="none">ProcessualRole</text>
    </g>
    <g stroke-linecap="butt" transform="matrix(1,0,0,1,116,490)" fill="rgb(73,114,136)" text-rendering="geometricPrecision" shape-rendering="geometricPrecision" stroke="rgb(73,114,136)" stroke-miterlimit="1.45">
      <rect x="185" y="-157.3795" clip-path="url(#clipPath2)" fill="none" width="125.56" rx="4" ry="4" height="20"/>
    </g>
    <g stroke-linecap="butt" transform="matrix(1,0,0,1,116,490)" text-rendering="geometricPrecision" font-family="sans-serif" shape-rendering="geometricPrecision" font-weight="bold" stroke-miterlimit="1.45">
      <text x="206.1037" xml:space="preserve" y="-184.6315" clip-path="url(#clipPath2)" stroke="none">RelationalRole</text>
    </g>
    <g stroke-linecap="butt" transform="matrix(1,0,0,1,116,490)" fill="rgb(73,114,136)" text-rendering="geometricPrecision" shape-rendering="geometricPrecision" stroke="rgb(73,114,136)" stroke-miterlimit="1.45">
      <rect x="185" y="-197.3795" clip-path="url(#clipPath2)" fill="none" width="125.56" rx="4" ry="4" height="20"/>
    </g>
    <g stroke-linecap="butt" transform="matrix(1,0,0,1,116,490)" text-rendering="geometricPrecision" font-family="sans-serif" shape-rendering="geometricPrecision" font-weight="bold" stroke-miterlimit="1.45">
      <text x="217.4399" xml:space="preserve" y="-304.6315" clip-path="url(#clipPath2)" stroke="none">Quality</text>
    </g>
    <g stroke-linecap="butt" transform="matrix(1,0,0,1,116,490)" fill="rgb(73,114,136)" text-rendering="geometricPrecision" shape-rendering="geometricPrecision" stroke="rgb(73,114,136)" stroke-miterlimit="1.45">
      <rect x="165" y="-317.3795" clip-path="url(#clipPath2)" fill="none" width="145.56" rx="4" ry="4" height="20"/>
      <rect stroke-linecap="square" x="145" y="-357.3795" clip-path="url(#clipPath2)" width="165.56" rx="4" ry="4" height="20" stroke="none" stroke-miterlimit="10"/>
    </g>
    <g stroke-linecap="butt" transform="matrix(1,0,0,1,116,490)" fill="white" text-rendering="geometricPrecision" font-family="sans-serif" shape-rendering="geometricPrecision" stroke="white" font-weight="bold" stroke-miterlimit="1.45">
      <text x="197.7798" xml:space="preserve" y="-344.6315" clip-path="url(#clipPath2)" stroke="none">Attributive</text>
    </g>
    <g stroke-linecap="butt" transform="matrix(1,0,0,1,116,490)" fill="rgb(73,114,136)" text-rendering="geometricPrecision" shape-rendering="geometricPrecision" stroke="rgb(73,114,136)" stroke-miterlimit="1.45">
      <rect x="145" y="-357.3795" clip-path="url(#clipPath2)" fill="none" width="165.56" rx="4" ry="4" height="20"/>
    </g>
    <g stroke-linecap="butt" transform="matrix(1,0,0,1,116,490)" text-rendering="geometricPrecision" font-family="sans-serif" shape-rendering="geometricPrecision" font-weight="bold" stroke-miterlimit="1.45">
      <text x="-30.0113" xml:space="preserve" y="-64.6315" clip-path="url(#clipPath2)" stroke="none">Line</text>
    </g>
    <g stroke-linecap="butt" transform="matrix(1,0,0,1,116,490)" fill="rgb(243,101,35)" text-rendering="geometricPrecision" shape-rendering="geometricPrecision" stroke="rgb(243,101,35)" stroke-miterlimit="1.45">
      <rect x="-75.664" y="-77.3795" clip-path="url(#clipPath2)" fill="none" width="115.9776" rx="4" ry="4" height="20"/>
      <rect stroke-linecap="square" x="-115.664" y="-357.3795" clip-path="url(#clipPath2)" width="155.9776" rx="4" ry="4" height="20" stroke="none" stroke-miterlimit="10"/>
    </g>
    <g stroke-linecap="butt" transform="matrix(1,0,0,1,116,490)" fill="white" text-rendering="geometricPrecision" font-family="sans-serif" shape-rendering="geometricPrecision" stroke="white" font-weight="bold" stroke-miterlimit="1.45">
      <text x="-69.3374" xml:space="preserve" y="-344.6315" clip-path="url(#clipPath2)" stroke="none">Continuant</text>
    </g>
    <g stroke-linecap="butt" transform="matrix(1,0,0,1,116,490)" fill="rgb(243,101,35)" text-rendering="geometricPrecision" shape-rendering="geometricPrecision" stroke="rgb(243,101,35)" stroke-miterlimit="1.45">
      <rect x="-115.664" y="-357.3795" clip-path="url(#clipPath2)" fill="none" width="155.9776" rx="4" ry="4" height="20"/>
    </g>
    <g stroke-linecap="butt" transform="matrix(1,0,0,1,116,490)" text-rendering="geometricPrecision" font-family="sans-serif" shape-rendering="geometricPrecision" font-weight="bold" stroke-miterlimit="1.45">
      <text x="-89.3496" xml:space="preserve" y="-144.6315" clip-path="url(#clipPath2)" stroke="none">ImmaterialContinuant</text>
    </g>
    <g stroke-linecap="butt" transform="matrix(1,0,0,1,116,490)" fill="rgb(243,101,35)" text-rendering="geometricPrecision" shape-rendering="geometricPrecision" stroke="rgb(243,101,35)" stroke-miterlimit="1.45">
      <rect x="-95.664" y="-157.3795" clip-path="url(#clipPath2)" fill="none" width="135.9776" rx="4" ry="4" height="20"/>
    </g>
    <g stroke-linecap="butt" transform="matrix(1,0,0,1,116,490)" text-rendering="geometricPrecision" font-family="sans-serif" shape-rendering="geometricPrecision" font-weight="bold" stroke-miterlimit="1.45">
      <text x="-67.7668" xml:space="preserve" y="-264.6315" clip-path="url(#clipPath2)" stroke="none">MaterialAggregate</text>
    </g>
    <g stroke-linecap="butt" transform="matrix(1,0,0,1,116,490)" fill="rgb(243,101,35)" text-rendering="geometricPrecision" shape-rendering="geometricPrecision" stroke="rgb(243,101,35)" stroke-miterlimit="1.45">
      <rect x="-71.1584" y="-277.3795" clip-path="url(#clipPath2)" fill="none" width="111.472" rx="4" ry="4" height="20"/>
    </g>
    <g stroke-linecap="butt" transform="matrix(1,0,0,1,116,490)" text-rendering="geometricPrecision" font-family="sans-serif" shape-rendering="geometricPrecision" font-weight="bold" stroke-miterlimit="1.45">
      <text x="-39.6833" xml:space="preserve" y="-24.6315" clip-path="url(#clipPath2)" stroke="none">Surface</text>
    </g>
    <g stroke-linecap="butt" transform="matrix(1,0,0,1,116,490)" fill="rgb(243,101,35)" text-rendering="geometricPrecision" shape-rendering="geometricPrecision" stroke="rgb(243,101,35)" stroke-miterlimit="1.45">
      <rect x="-75.664" y="-37.3795" clip-path="url(#clipPath2)" fill="none" width="115.9776" rx="4" ry="4" height="20"/>
    </g>
    <g stroke-linecap="butt" transform="matrix(1,0,0,1,116,490)" text-rendering="geometricPrecision" font-family="sans-serif" shape-rendering="geometricPrecision" font-weight="bold" stroke-miterlimit="1.45">
      <text x="-56.7687" xml:space="preserve" y="-184.6315" clip-path="url(#clipPath2)" stroke="none">MaterialObject</text>
    </g>
    <g stroke-linecap="butt" transform="matrix(1,0,0,1,116,490)" fill="rgb(243,101,35)" text-rendering="geometricPrecision" shape-rendering="geometricPrecision" stroke="rgb(243,101,35)" stroke-miterlimit="1.45">
      <rect x="-71.1584" y="-197.3795" clip-path="url(#clipPath2)" fill="none" width="111.472" rx="4" ry="4" height="20"/>
    </g>
    <g stroke-linecap="butt" transform="matrix(1,0,0,1,116,490)" text-rendering="geometricPrecision" font-family="sans-serif" shape-rendering="geometricPrecision" font-weight="bold" stroke-miterlimit="1.45">
      <text x="-32.6753" xml:space="preserve" y="-104.6315" clip-path="url(#clipPath2)" stroke="none">Point</text>
    </g>
    <g stroke-linecap="butt" transform="matrix(1,0,0,1,116,490)" fill="rgb(243,101,35)" text-rendering="geometricPrecision" shape-rendering="geometricPrecision" stroke="rgb(243,101,35)" stroke-miterlimit="1.45">
      <rect x="-75.664" y="-117.3795" clip-path="url(#clipPath2)" fill="none" width="115.9776" rx="4" ry="4" height="20"/>
    </g>
    <g fill="rgb(150,150,150)" text-rendering="geometricPrecision" shape-rendering="geometricPrecision" transform="matrix(1,0,0,1,116,490)" stroke="rgb(150,150,150)">
      <rect x="537.894" y="-460.0995" clip-path="url(#clipPath2)" width="70" rx="4" ry="4" height="20" stroke="none"/>
    </g>
    <g stroke-linecap="butt" transform="matrix(1,0,0,1,116,490)" fill="white" text-rendering="geometricPrecision" font-family="sans-serif" shape-rendering="geometricPrecision" stroke="white" font-weight="bold" stroke-miterlimit="1.45">
      <text x="544.8858" xml:space="preserve" y="-447.3515" clip-path="url(#clipPath2)" stroke="none">Individual</text>
    </g>
    <g stroke-linecap="butt" transform="matrix(1,0,0,1,116,490)" fill="rgb(150,150,150)" text-rendering="geometricPrecision" shape-rendering="geometricPrecision" stroke="rgb(150,150,150)" stroke-miterlimit="1.45">
      <rect x="537.894" y="-460.0995" clip-path="url(#clipPath2)" fill="none" width="70" rx="4" ry="4" height="20"/>
    </g>
    <g stroke-linecap="butt" transform="matrix(1,0,0,1,116,490)" text-rendering="geometricPrecision" font-family="sans-serif" shape-rendering="geometricPrecision" font-weight="bold" stroke-miterlimit="1.45">
      <text x="-49.7666" xml:space="preserve" y="-224.6315" clip-path="url(#clipPath2)" stroke="none">MaterialPart</text>
    </g>
    <g stroke-linecap="butt" transform="matrix(1,0,0,1,116,490)" fill="rgb(243,101,35)" text-rendering="geometricPrecision" shape-rendering="geometricPrecision" stroke="rgb(243,101,35)" stroke-miterlimit="1.45">
      <rect x="-71.1584" y="-237.3795" clip-path="url(#clipPath2)" fill="none" width="111.472" rx="4" ry="4" height="20"/>
    </g>
    <g stroke-linecap="butt" transform="matrix(1,0,0,1,116,490)" text-rendering="geometricPrecision" font-family="sans-serif" shape-rendering="geometricPrecision" font-weight="bold" stroke-miterlimit="1.45">
      <text x="-82.0116" xml:space="preserve" y="-304.6315" clip-path="url(#clipPath2)" stroke="none">MaterialContinuant</text>
    </g>
    <g stroke-linecap="butt" transform="matrix(1,0,0,1,116,490)" fill="rgb(243,101,35)" text-rendering="geometricPrecision" shape-rendering="geometricPrecision" stroke="rgb(243,101,35)" stroke-miterlimit="1.45">
      <rect x="-95.664" y="-317.3795" clip-path="url(#clipPath2)" fill="none" width="135.9776" rx="4" ry="4" height="20"/>
      <path fill="none" d="M398.372 -460.0966 L398.372 -479.0995 L435.6519 -479.0995" clip-path="url(#clipPath2)" stroke="black"/>
      <path fill="white" d="M450.6519 -479.0995 L434.6519 -485.0995 L434.6519 -473.0995 Z" clip-path="url(#clipPath2)" stroke="none"/>
      <path fill="none" d="M450.6519 -479.0995 L434.6519 -485.0995 L434.6519 -473.0995 Z" clip-path="url(#clipPath2)" stroke="black"/>
      <path fill="none" d="M503.6081 -267.3795 L494.184 -267.3795 L493.9834 -322.3406" clip-path="url(#clipPath2)" stroke="black"/>
      <path fill="white" d="M493.9287 -337.3405 L487.9871 -321.3187 L499.987 -321.3625 Z" clip-path="url(#clipPath2)" stroke="none"/>
      <path fill="none" d="M493.9287 -337.3405 L487.9871 -321.3187 L499.987 -321.3625 Z" clip-path="url(#clipPath2)" stroke="black"/>
      <path fill="none" d="M398.372 -357.3955 L398.372 -366.8068" clip-path="url(#clipPath2)" stroke="black"/>
      <path fill="white" d="M398.372 -381.8068 L392.372 -365.8068 L404.372 -365.8068 Z" clip-path="url(#clipPath2)" stroke="none"/>
      <path fill="none" d="M398.372 -381.8068 L392.372 -365.8068 L404.372 -365.8068 Z" clip-path="url(#clipPath2)" stroke="black"/>
      <path fill="none" d="M537.648 -357.345 L537.648 -386.7795 L477.7395 -386.7795" clip-path="url(#clipPath2)" stroke="black"/>
      <path fill="white" d="M462.7395 -386.7795 L478.7395 -380.7795 L478.7395 -392.7795 Z" clip-path="url(#clipPath2)" stroke="none"/>
      <path fill="none" d="M462.7395 -386.7795 L478.7395 -380.7795 L478.7395 -392.7795 Z" clip-path="url(#clipPath2)" stroke="black"/>
      <path fill="none" d="M503.6081 -307.3795 L494.184 -307.3795 L494.0742 -322.419" clip-path="url(#clipPath2)" stroke="black"/>
      <path fill="white" d="M493.9648 -337.4186 L488.0817 -321.3752 L500.0814 -321.4628 Z" clip-path="url(#clipPath2)" stroke="none"/>
      <path fill="none" d="M493.9648 -337.4186 L488.0817 -321.3752 L500.0814 -321.4628 Z" clip-path="url(#clipPath2)" stroke="black"/>
      <path fill="none" d="M591.7011 -307.3795 L622.52 -307.3795 L622.52 -351.7795 L641.5677 -351.7795" clip-path="url(#clipPath2)" stroke="black"/>
      <path fill="black" d="M649.5677 -351.7795 L637.5677 -356.7795 L640.5677 -351.7795 L637.5677 -346.7795 Z" clip-path="url(#clipPath2)" stroke="none"/>
      <rect x="580.1757" y="-337.5796" clip-path="url(#clipPath2)" fill="white" width="84.6885" height="16.0001" stroke="none"/>
      <text x="582.1757" y="-326.8315" clip-path="url(#clipPath2)" fill="black" font-family="sans-serif" stroke="none" xml:space="preserve">hasTimePeriod</text>
      <path fill="none" d="M740.6718 -351.7795 L750.12 -351.7795 L750.12 -366.8186" clip-path="url(#clipPath2)" stroke="black"/>
      <path fill="white" d="M750.12 -381.8186 L744.12 -365.8186 L756.12 -365.8186 Z" clip-path="url(#clipPath2)" stroke="none"/>
      <path fill="none" d="M750.12 -381.8186 L744.12 -365.8186 L756.12 -365.8186 Z" clip-path="url(#clipPath2)" stroke="black"/>
      <path fill="none" d="M462.7397 -396.7795 L641.5844 -396.7795" clip-path="url(#clipPath2)" stroke="black"/>
      <path fill="black" d="M649.5844 -396.7795 L637.5844 -401.7795 L640.5844 -396.7795 L637.5844 -391.7795 Z" clip-path="url(#clipPath2)" stroke="none"/>
      <rect x="531.1618" y="-404.7796" clip-path="url(#clipPath2)" fill="white" width="50.0083" height="16.0001" stroke="none"/>
      <text x="533.1619" y="-394.0315" clip-path="url(#clipPath2)" fill="black" font-family="sans-serif" stroke="none" xml:space="preserve">hasTime</text>
      <path fill="none" d="M591.6808 -267.3795 L695.12 -267.3795 L695.12 -293.7635" clip-path="url(#clipPath2)" stroke="black"/>
      <path fill="black" d="M695.12 -301.7635 L690.12 -289.7635 L695.12 -292.7635 L700.12 -289.7635 Z" clip-path="url(#clipPath2)" stroke="none"/>
      <rect x="604.2762" y="-275.3796" clip-path="url(#clipPath2)" fill="white" width="87.3646" height="16.0001" stroke="none"/>
      <text x="606.2762" y="-264.6315" clip-path="url(#clipPath2)" fill="black" font-family="sans-serif" stroke="none" xml:space="preserve">hasPointInTime</text>
      <path fill="none" d="M740.6718 -311.7795 L750.12 -311.7795 L750.12 -366.8186" clip-path="url(#clipPath2)" stroke="black"/>
      <path fill="white" d="M750.12 -381.8186 L744.12 -365.8186 L756.12 -365.8186 Z" clip-path="url(#clipPath2)" stroke="none"/>
      <path fill="none" d="M750.12 -381.8186 L744.12 -365.8186 L756.12 -365.8186 Z" clip-path="url(#clipPath2)" stroke="black"/>
      <path fill="none" d="M184.9938 -112.3795 L175.5 -112.3795 L175.5 -202.3743" clip-path="url(#clipPath2)" stroke="black"/>
      <path fill="white" d="M175.5 -217.3743 L169.5 -201.3743 L181.5 -201.3743 Z" clip-path="url(#clipPath2)" stroke="none"/>
      <path fill="none" d="M175.5 -217.3743 L169.5 -201.3743 L181.5 -201.3743 Z" clip-path="url(#clipPath2)" stroke="black"/>
      <path fill="none" d="M184.9938 -147.3795 L175.5 -147.3795 L175.5 -202.3822" clip-path="url(#clipPath2)" stroke="black"/>
      <path fill="white" d="M175.5 -217.3822 L169.5 -201.3822 L181.5 -201.3822 Z" clip-path="url(#clipPath2)" stroke="none"/>
      <path fill="none" d="M175.5 -217.3822 L169.5 -201.3822 L181.5 -201.3822 Z" clip-path="url(#clipPath2)" stroke="black"/>
      <path fill="none" d="M310.5458 -147.3795 L466.672 -147.3795 L466.672 -347.3795 L475.6189 -347.3795" clip-path="url(#clipPath2)" stroke="black"/>
      <path fill="black" d="M483.6189 -347.3795 L471.6189 -352.3795 L474.6189 -347.3795 L471.6189 -342.3795 Z" clip-path="url(#clipPath2)" stroke="none"/>
      <rect x="448.3339" y="-255.3796" clip-path="url(#clipPath2)" fill="white" width="36.6762" height="16.0001" stroke="none"/>
      <text x="450.3339" y="-244.6315" clip-path="url(#clipPath2)" fill="black" font-family="sans-serif" stroke="none" xml:space="preserve">roleOf</text>
      <path fill="none" d="M184.9938 -187.3795 L175.5 -187.3795 L175.5 -202.3533" clip-path="url(#clipPath2)" stroke="black"/>
      <path fill="white" d="M175.5 -217.3533 L169.5 -201.3533 L181.5 -201.3533 Z" clip-path="url(#clipPath2)" stroke="none"/>
      <path fill="none" d="M175.5 -217.3533 L169.5 -201.3533 L181.5 -201.3533 Z" clip-path="url(#clipPath2)" stroke="black"/>
      <path fill="none" d="M310.5241 -187.3795 L334.5456 -187.3795 L334.5456 -267.3795 L318.5905 -267.3795" clip-path="url(#clipPath2)" stroke="black"/>
      <path fill="black" d="M310.5905 -267.3795 L322.5905 -262.3795 L319.5905 -267.3795 L322.5905 -272.3795 Z" clip-path="url(#clipPath2)" stroke="none"/>
      <rect x="316.2075" y="-235.3796" clip-path="url(#clipPath2)" fill="white" width="36.6762" height="16.0001" stroke="none"/>
      <text x="318.2075" y="-224.6315" clip-path="url(#clipPath2)" fill="black" font-family="sans-serif" stroke="none" xml:space="preserve">roleOf</text>
      <path fill="none" d="M310.5523 -307.3795 L449.256 -307.3795 L449.256 -373.7409" clip-path="url(#clipPath2)" stroke="black"/>
      <path fill="black" d="M449.256 -381.7409 L444.256 -369.7409 L449.256 -372.7409 L454.256 -369.7409 Z" clip-path="url(#clipPath2)" stroke="none"/>
      <rect x="358.7943" y="-315.3796" clip-path="url(#clipPath2)" fill="white" width="51.3523" height="16.0001" stroke="none"/>
      <text x="360.7943" y="-304.6315" clip-path="url(#clipPath2)" fill="black" font-family="sans-serif" stroke="none" xml:space="preserve">qualityOf</text>
      <path fill="none" d="M165.0217 -232.3795 L155.5 -232.3795 L155.5 -322.3845" clip-path="url(#clipPath2)" stroke="black"/>
      <path fill="white" d="M155.5 -337.3845 L149.5 -321.3845 L161.5 -321.3845 Z" clip-path="url(#clipPath2)" stroke="none"/>
      <path fill="none" d="M155.5 -337.3845 L149.5 -321.3845 L161.5 -321.3845 Z" clip-path="url(#clipPath2)" stroke="black"/>
      <path fill="none" d="M165.0217 -307.3795 L155.5 -307.3795 L155.5 -322.3967" clip-path="url(#clipPath2)" stroke="black"/>
      <path fill="white" d="M155.5 -337.3967 L149.5 -321.3967 L161.5 -321.3967 Z" clip-path="url(#clipPath2)" stroke="none"/>
      <path fill="none" d="M155.5 -337.3967 L149.5 -321.3967 L161.5 -321.3967 Z" clip-path="url(#clipPath2)" stroke="black"/>
      <path fill="none" d="M165.0217 -267.3795 L155.5 -267.3795 L155.5 -322.3795" clip-path="url(#clipPath2)" stroke="black"/>
      <path fill="white" d="M155.5 -337.3795 L149.5 -321.3795 L161.5 -321.3795 Z" clip-path="url(#clipPath2)" stroke="none"/>
      <path fill="none" d="M155.5 -337.3795 L149.5 -321.3795 L161.5 -321.3795 Z" clip-path="url(#clipPath2)" stroke="black"/>
      <path fill="none" d="M363.6789 -347.3795 L318.5602 -347.3795" clip-path="url(#clipPath2)" stroke="black"/>
      <path fill="black" d="M310.5602 -347.3795 L322.5602 -342.3795 L319.5602 -347.3795 L322.5602 -352.3795 Z" clip-path="url(#clipPath2)" stroke="none"/>
      <text x="316.4398" y="-354.6316" clip-path="url(#clipPath2)" fill="black" font-family="sans-serif" stroke="none" xml:space="preserve">hasPart</text>
      <path fill="none" d="M227.78 -357.3955 L227.78 -391.7795 L318.9419 -391.7795" clip-path="url(#clipPath2)" stroke="black"/>
      <path fill="white" d="M333.9419 -391.7795 L317.9419 -397.7795 L317.9419 -385.7795 Z" clip-path="url(#clipPath2)" stroke="none"/>
      <path fill="none" d="M333.9419 -391.7795 L317.9419 -397.7795 L317.9419 -385.7795 Z" clip-path="url(#clipPath2)" stroke="black"/>
      <path fill="none" d="M165.0115 -222.3795 L126.688 -222.3795 L126.688 -352.3795 L48.293 -352.3795" clip-path="url(#clipPath2)" stroke="black"/>
      <path fill="black" d="M40.293 -352.3795 L52.293 -347.3795 L49.293 -352.3795 L52.293 -357.3795 Z" clip-path="url(#clipPath2)" stroke="none"/>
      <rect x="100.0098" y="-295.3796" clip-path="url(#clipPath2)" fill="white" width="53.3563" height="16.0001" stroke="none"/>
      <text x="102.0098" y="-284.6315" clip-path="url(#clipPath2)" fill="black" font-family="sans-serif" stroke="none" xml:space="preserve">playedBy</text>
      <path fill="none" d="M184.9687 -102.3795 L95.456 -102.3795 L95.456 -342.3795 L48.3182 -342.3795" clip-path="url(#clipPath2)" stroke="black"/>
      <path fill="black" d="M40.3182 -342.3795 L52.3182 -337.3795 L49.3182 -342.3795 L52.3182 -347.3795 Z" clip-path="url(#clipPath2)" stroke="none"/>
      <rect x="77.1179" y="-230.3796" clip-path="url(#clipPath2)" fill="white" width="36.6762" height="16.0001" stroke="none"/>
      <text x="79.1179" y="-219.6315" clip-path="url(#clipPath2)" fill="black" font-family="sans-serif" stroke="none" xml:space="preserve">roleOf</text>
      <path fill="none" d="M-37.6752 -357.3955 L-37.6752 -391.7795 L318.9922 -391.7795" clip-path="url(#clipPath2)" stroke="black"/>
      <path fill="white" d="M333.9922 -391.7795 L317.9922 -397.7795 L317.9922 -385.7795 Z" clip-path="url(#clipPath2)" stroke="none"/>
      <path fill="none" d="M333.9922 -391.7795 L317.9922 -397.7795 L317.9922 -385.7795 Z" clip-path="url(#clipPath2)" stroke="black"/>
      <path fill="none" d="M-75.6811 -67.3795 L-85.6752 -67.3795 L-85.6752 -122.4186" clip-path="url(#clipPath2)" stroke="black"/>
      <path fill="white" d="M-85.6752 -137.4186 L-91.6752 -121.4186 L-79.6752 -121.4186 Z" clip-path="url(#clipPath2)" stroke="none"/>
      <path fill="none" d="M-85.6752 -137.4186 L-91.6752 -121.4186 L-79.6752 -121.4186 Z" clip-path="url(#clipPath2)" stroke="black"/>
      <path fill="none" d="M-95.6586 -147.3795 L-105.6752 -147.3795 L-105.6752 -322.3698" clip-path="url(#clipPath2)" stroke="black"/>
      <path fill="white" d="M-105.6752 -337.3698 L-111.6752 -321.3698 L-99.6752 -321.3698 Z" clip-path="url(#clipPath2)" stroke="none"/>
      <path fill="none" d="M-105.6752 -337.3698 L-111.6752 -321.3698 L-99.6752 -321.3698 Z" clip-path="url(#clipPath2)" stroke="black"/>
      <path fill="none" d="M-17.6752 -57.4186 L-17.6752 -45.3828" clip-path="url(#clipPath2)" stroke="black"/>
      <path fill="black" d="M-17.6752 -37.3828 L-12.6752 -49.3828 L-17.6752 -46.3828 L-22.6752 -49.3828 Z" clip-path="url(#clipPath2)" stroke="none"/>
      <text x="-11.6752" y="-44.6315" clip-path="url(#clipPath2)" fill="black" font-family="sans-serif" stroke="none" xml:space="preserve">boundaryOf</text>
      <path fill="none" d="M-75.6811 -27.3795 L-85.6752 -27.3795 L-85.6752 -122.3893" clip-path="url(#clipPath2)" stroke="black"/>
      <path fill="white" d="M-85.6752 -137.3893 L-91.6752 -121.3893 L-79.6752 -121.3893 Z" clip-path="url(#clipPath2)" stroke="none"/>
      <path fill="none" d="M-85.6752 -137.3893 L-91.6752 -121.3893 L-79.6752 -121.3893 Z" clip-path="url(#clipPath2)" stroke="black"/>
      <path fill="none" d="M40.3134 -267.3795 L56.4133 -267.3795 L56.4133 -192.3795 L48.3134 -192.3795" clip-path="url(#clipPath2)" stroke="black"/>
      <path fill="black" d="M40.3134 -192.3795 L52.3134 -187.3795 L49.3134 -192.3795 L52.3134 -197.3795 Z" clip-path="url(#clipPath2)" stroke="none"/>
      <rect x="22.7391" y="-255.4924" clip-path="url(#clipPath2)" fill="white" width="67.3484" height="16.0001" stroke="none"/>
      <text x="24.7391" y="-244.7443" clip-path="url(#clipPath2)" fill="black" font-family="sans-serif" stroke="none" xml:space="preserve">hasMember</text>
      <path fill="none" d="M40.315 -27.3795 L56.4133 -27.3795 L56.4133 -182.3795 L48.3134 -182.3795" clip-path="url(#clipPath2)" stroke="black"/>
      <path fill="black" d="M40.3134 -182.3795 L52.3134 -177.3795 L49.3134 -182.3795 L52.3134 -187.3795 Z" clip-path="url(#clipPath2)" stroke="none"/>
      <rect x="23.0631" y="-137.046" clip-path="url(#clipPath2)" fill="white" width="66.7004" height="16.0001" stroke="none"/>
      <text x="25.0631" y="-126.2979" clip-path="url(#clipPath2)" fill="black" font-family="sans-serif" stroke="none" xml:space="preserve">boundaryOf</text>
      <path fill="none" d="M-75.6811 -107.3795 L-85.6752 -107.3795 L-85.6752 -122.4186" clip-path="url(#clipPath2)" stroke="black"/>
      <path fill="white" d="M-85.6752 -137.4186 L-91.6752 -121.4186 L-79.6752 -121.4186 Z" clip-path="url(#clipPath2)" stroke="none"/>
      <path fill="none" d="M-85.6752 -137.4186 L-91.6752 -121.4186 L-79.6752 -121.4186 Z" clip-path="url(#clipPath2)" stroke="black"/>
      <path fill="none" d="M-17.6752 -97.4186 L-17.6752 -85.3828" clip-path="url(#clipPath2)" stroke="black"/>
      <path fill="black" d="M-17.6752 -77.3828 L-12.6752 -89.3828 L-17.6752 -86.3828 L-22.6752 -89.3828 Z" clip-path="url(#clipPath2)" stroke="none"/>
      <text x="-11.6752" y="-84.6315" clip-path="url(#clipPath2)" fill="black" font-family="sans-serif" stroke="none" xml:space="preserve">boundaryOf</text>
      <path fill="none" d="M398.372 -401.7535 L398.372 -414.8867 L572.894 -414.8867 L572.894 -425.0927" clip-path="url(#clipPath2)" stroke="black"/>
      <path fill="white" d="M572.894 -440.0927 L566.894 -424.0927 L578.894 -424.0927 Z" clip-path="url(#clipPath2)" stroke="none"/>
      <path fill="none" d="M572.894 -440.0927 L566.894 -424.0927 L578.894 -424.0927 Z" clip-path="url(#clipPath2)" stroke="black"/>
      <path fill="none" d="M705.12 -401.7535 L705.12 -414.8867 L572.894 -414.8867 L572.894 -425.0927" clip-path="url(#clipPath2)" stroke="black"/>
      <path fill="white" d="M572.894 -440.0927 L566.894 -424.0927 L578.894 -424.0927 Z" clip-path="url(#clipPath2)" stroke="none"/>
      <path fill="none" d="M572.894 -440.0927 L566.894 -424.0927 L578.894 -424.0927 Z" clip-path="url(#clipPath2)" stroke="black"/>
      <path fill="none" d="M572.894 -460.0966 L572.894 -479.0995 L535.6141 -479.0995" clip-path="url(#clipPath2)" stroke="black"/>
      <path fill="white" d="M520.6141 -479.0995 L536.6141 -473.0995 L536.6141 -485.0995 Z" clip-path="url(#clipPath2)" stroke="none"/>
      <path fill="none" d="M520.6141 -479.0995 L536.6141 -473.0995 L536.6141 -485.0995 Z" clip-path="url(#clipPath2)" stroke="black"/>
      <path fill="none" d="M537.9129 -450.0995 L441.3594 -450.0995" clip-path="url(#clipPath2)" stroke="black"/>
      <path fill="black" d="M433.3594 -450.0995 L445.3594 -445.0995 L442.3594 -450.0995 L445.3594 -455.0995 Z" clip-path="url(#clipPath2)" stroke="none"/>
      <rect x="454.9528" y="-458.0996" clip-path="url(#clipPath2)" fill="white" width="61.3604" height="16.0001" stroke="none"/>
      <text x="456.9528" y="-447.3515" clip-path="url(#clipPath2)" fill="black" font-family="sans-serif" stroke="none" xml:space="preserve">instanceOf</text>
      <path fill="none" d="M-15.4224 -217.4186 L-15.4224 -205.3828" clip-path="url(#clipPath2)" stroke="black"/>
      <path fill="black" d="M-15.4224 -197.3828 L-10.4224 -209.3828 L-15.4224 -206.3828 L-20.4224 -209.3828 Z" clip-path="url(#clipPath2)" stroke="none"/>
      <text x="-9.4224" y="-204.6315" clip-path="url(#clipPath2)" fill="black" font-family="sans-serif" stroke="none" xml:space="preserve">partOf</text>
      <path fill="none" d="M-71.1743 -267.3795 L-79.3887 -267.3795 L-79.3887 -282.4095" clip-path="url(#clipPath2)" stroke="black"/>
      <path fill="white" d="M-79.3887 -297.4095 L-85.3887 -281.4095 L-73.3887 -281.4095 Z" clip-path="url(#clipPath2)" stroke="none"/>
      <path fill="none" d="M-79.3887 -297.4095 L-85.3887 -281.4095 L-73.3887 -281.4095 Z" clip-path="url(#clipPath2)" stroke="black"/>
      <path fill="none" d="M-71.1743 -187.3795 L-79.3887 -187.3795 L-79.3887 -282.3893" clip-path="url(#clipPath2)" stroke="black"/>
      <path fill="white" d="M-79.3887 -297.3893 L-85.3887 -281.3893 L-73.3887 -281.3893 Z" clip-path="url(#clipPath2)" stroke="none"/>
      <path fill="none" d="M-79.3887 -297.3893 L-85.3887 -281.3893 L-73.3887 -281.3893 Z" clip-path="url(#clipPath2)" stroke="black"/>
      <path fill="none" d="M-91.8 -157.404 L-91.8 -289.3809" clip-path="url(#clipPath2)" stroke="black"/>
      <path fill="black" d="M-91.8 -297.3809 L-96.8 -285.3809 L-91.8 -288.3809 L-86.8 -285.3809 Z" clip-path="url(#clipPath2)" stroke="none"/>
      <rect x="-100.5406" y="-179.8016" clip-path="url(#clipPath2)" fill="white" width="58.6844" height="16.0001" stroke="none"/>
      <text x="-98.5406" y="-169.0536" clip-path="url(#clipPath2)" fill="black" font-family="sans-serif" stroke="none" xml:space="preserve">hasOwner</text>
      <path fill="none" d="M-71.1743 -227.3795 L-79.3887 -227.3795 L-79.3887 -282.4186" clip-path="url(#clipPath2)" stroke="black"/>
      <path fill="white" d="M-79.3887 -297.4186 L-85.3887 -281.4186 L-73.3887 -281.4186 Z" clip-path="url(#clipPath2)" stroke="none"/>
      <path fill="none" d="M-79.3887 -297.4186 L-85.3887 -281.4186 L-73.3887 -281.4186 Z" clip-path="url(#clipPath2)" stroke="black"/>
      <path fill="none" d="M-95.6586 -307.3795 L-105.6752 -307.3795 L-105.6752 -322.4186" clip-path="url(#clipPath2)" stroke="black"/>
      <path fill="white" d="M-105.6752 -337.4186 L-111.6752 -321.4186 L-99.6752 -321.4186 Z" clip-path="url(#clipPath2)" stroke="none"/>
      <path fill="none" d="M-105.6752 -337.4186 L-111.6752 -321.4186 L-99.6752 -321.4186 Z" clip-path="url(#clipPath2)" stroke="black"/>
    </g>
  </g>
</svg>
