<?xml version="1.0" encoding="UTF-8"?><svg xmlns="http://www.w3.org/2000/svg" xmlns:xlink="http://www.w3.org/1999/xlink" fill-opacity="1" color-rendering="auto" color-interpolation="auto" text-rendering="auto" stroke="black" stroke-linecap="square" width="562" stroke-miterlimit="10" shape-rendering="auto" stroke-opacity="1" fill="black" stroke-dasharray="none" font-weight="normal" stroke-width="1" height="324" font-family="'Dialog'" font-style="normal" stroke-linejoin="miter" font-size="12px" stroke-dashoffset="0" image-rendering="auto">
  <!--Generated by ySVG 2.6-->
  <defs id="genericDefs"/>
  <g>
    <defs id="defs1">
      <clipPath clipPathUnits="userSpaceOnUse" id="clipPath1">
        <path d="M0 0 L562 0 L562 324 L0 324 L0 0 Z"/>
      </clipPath>
      <clipPath clipPathUnits="userSpaceOnUse" id="clipPath2">
        <path d="M737 494 L1018 494 L1018 656 L737 656 L737 494 Z"/>
      </clipPath>
    </defs>
    <g fill="white" text-rendering="geometricPrecision" shape-rendering="geometricPrecision" transform="scale(2,2) translate(-737,-494)" stroke="white">
      <rect x="737" width="281" height="162" y="494" clip-path="url(#clipPath2)" stroke="none"/>
    </g>
    <g text-rendering="geometricPrecision" stroke-miterlimit="1.45" shape-rendering="geometricPrecision" transform="matrix(2,0,0,2,-1474,-988)" stroke-linecap="butt">
      <path fill="none" d="M810.881 632.4343 L810.881 623.1779" clip-path="url(#clipPath2)"/>
      <path fill="white" d="M810.881 608.1779 L804.881 624.1779 L816.881 624.1779 Z" clip-path="url(#clipPath2)" stroke="none"/>
      <path fill="none" d="M810.881 608.1779 L804.881 624.1779 L816.881 624.1779 Z" clip-path="url(#clipPath2)"/>
      <path fill="none" d="M871.1243 598.1743 L933.1044 598.1743" clip-path="url(#clipPath2)"/>
      <path d="M941.1044 598.1743 L929.1044 593.1743 L932.1044 598.1743 L929.1044 603.1743 Z" clip-path="url(#clipPath2)" stroke="none"/>
      <text x="883.1141" xml:space="preserve" y="591.5375" clip-path="url(#clipPath2)" font-family="sans-serif" stroke="none">hasTime</text>
      <path fill="none" d="M810.881 588.2003 L810.881 575.0671 L906.121 575.0671 L906.121 564.861" clip-path="url(#clipPath2)"/>
      <path fill="white" d="M906.121 549.861 L900.121 565.861 L912.121 565.861 Z" clip-path="url(#clipPath2)" stroke="none"/>
      <path fill="none" d="M906.121 549.861 L900.121 565.861 L912.121 565.861 Z" clip-path="url(#clipPath2)"/>
      <path fill="none" d="M977.721 588.2003 L977.721 575.0671 L906.121 575.0671 L906.121 564.861" clip-path="url(#clipPath2)"/>
      <path fill="white" d="M906.121 549.861 L900.121 565.861 L912.121 565.861 Z" clip-path="url(#clipPath2)" stroke="none"/>
      <path fill="none" d="M906.121 549.861 L900.121 565.861 L912.121 565.861 Z" clip-path="url(#clipPath2)"/>
      <path fill="none" d="M750.6411 642.4142 L740.1 642.4142 L740.1 539.8542 L863.1415 539.8542" clip-path="url(#clipPath2)"/>
      <path d="M871.1415 539.8542 L859.1415 534.8542 L862.1415 539.8542 L859.1415 544.8542 Z" clip-path="url(#clipPath2)" stroke="none"/>
      <rect x="775.3703" y="530.5037" clip-path="url(#clipPath2)" fill="white" width="51.3555" height="18.7012" stroke="none"/>
      <text x="777.3702" xml:space="preserve" y="544.5681" clip-path="url(#clipPath2)" font-family="sans-serif" stroke="none">qualityOf</text>
      <path fill="none" d="M906.121 529.8235 L906.121 518 L961.76 518 L961.76 539.8542 L949.1399 539.8542" clip-path="url(#clipPath2)"/>
      <path d="M941.1399 539.8542 L953.1399 544.8542 L950.1399 539.8542 L953.1399 534.8542 Z" clip-path="url(#clipPath2)" stroke="none"/>
      <text x="873.5831" xml:space="preserve" y="511.3633" clip-path="url(#clipPath2)" font-family="sans-serif" stroke="none">temporallyRelatedWith</text>
    </g>
    <g fill="rgb(150,150,150)" text-rendering="geometricPrecision" shape-rendering="geometricPrecision" transform="matrix(2,0,0,2,-1474,-988)" stroke="rgb(150,150,150)">
      <rect x="750.641" y="588.1743" clip-path="url(#clipPath2)" width="120.48" rx="4" ry="4" height="20" stroke="none"/>
    </g>
    <g stroke-linecap="butt" transform="matrix(2,0,0,2,-1474,-988)" fill="white" text-rendering="geometricPrecision" font-family="sans-serif" shape-rendering="geometricPrecision" stroke="white" font-weight="bold" stroke-miterlimit="1.45">
      <text x="756.8722" xml:space="preserve" y="602.8881" clip-path="url(#clipPath2)" stroke="none">ConcreteIndividual</text>
    </g>
    <g stroke-linecap="butt" transform="matrix(2,0,0,2,-1474,-988)" fill="rgb(150,150,150)" text-rendering="geometricPrecision" shape-rendering="geometricPrecision" stroke="rgb(150,150,150)" stroke-miterlimit="1.45">
      <rect x="750.641" y="588.1743" clip-path="url(#clipPath2)" fill="none" width="120.48" rx="4" ry="4" height="20"/>
    </g>
    <g fill="rgb(43,138,132)" text-rendering="geometricPrecision" shape-rendering="geometricPrecision" transform="matrix(2,0,0,2,-1474,-988)" stroke="rgb(43,138,132)">
      <rect x="941.121" y="588.1743" clip-path="url(#clipPath2)" width="73.2" rx="4" ry="4" height="20" stroke="none"/>
    </g>
    <g stroke-linecap="butt" transform="matrix(2,0,0,2,-1474,-988)" fill="white" text-rendering="geometricPrecision" font-family="sans-serif" shape-rendering="geometricPrecision" stroke="white" font-weight="bold" stroke-miterlimit="1.45">
      <text x="947.0501" xml:space="preserve" y="602.8881" clip-path="url(#clipPath2)" stroke="none">TimeEntity</text>
    </g>
    <g stroke-linecap="butt" transform="matrix(2,0,0,2,-1474,-988)" fill="rgb(43,138,132)" text-rendering="geometricPrecision" shape-rendering="geometricPrecision" stroke="rgb(43,138,132)" stroke-miterlimit="1.45">
      <rect x="941.121" y="588.1743" clip-path="url(#clipPath2)" fill="none" width="73.2" rx="4" ry="4" height="20"/>
    </g>
    <g fill="rgb(150,150,150)" text-rendering="geometricPrecision" shape-rendering="geometricPrecision" transform="matrix(2,0,0,2,-1474,-988)" stroke="rgb(150,150,150)">
      <rect x="871.121" y="529.8543" clip-path="url(#clipPath2)" width="70" rx="4" ry="4" height="20" stroke="none"/>
    </g>
    <g stroke-linecap="butt" transform="matrix(2,0,0,2,-1474,-988)" fill="white" text-rendering="geometricPrecision" font-family="sans-serif" shape-rendering="geometricPrecision" stroke="white" font-weight="bold" stroke-miterlimit="1.45">
      <text x="878.119" xml:space="preserve" y="544.5681" clip-path="url(#clipPath2)" stroke="none">Individual</text>
    </g>
    <g stroke-linecap="butt" transform="matrix(2,0,0,2,-1474,-988)" fill="rgb(150,150,150)" text-rendering="geometricPrecision" shape-rendering="geometricPrecision" stroke="rgb(150,150,150)" stroke-miterlimit="1.45">
      <rect x="871.121" y="529.8543" clip-path="url(#clipPath2)" fill="none" width="70" rx="4" ry="4" height="20"/>
    </g>
    <g stroke-linecap="butt" transform="matrix(2,0,0,2,-1474,-988)" text-rendering="geometricPrecision" font-family="sans-serif" shape-rendering="geometricPrecision" font-weight="bold" stroke-miterlimit="1.45">
      <text x="790.5431" xml:space="preserve" y="647.1281" clip-path="url(#clipPath2)" stroke="none">Quality</text>
    </g>
    <g stroke-linecap="butt" transform="matrix(2,0,0,2,-1474,-988)" fill="rgb(73,114,136)" text-rendering="geometricPrecision" shape-rendering="geometricPrecision" stroke="rgb(73,114,136)" stroke-miterlimit="1.45">
      <rect x="750.641" y="632.4143" clip-path="url(#clipPath2)" fill="none" width="120.48" rx="4" ry="4" height="20"/>
    </g>
  </g>
</svg>
