<?xml version="1.0" encoding="UTF-8"?><svg xmlns="http://www.w3.org/2000/svg" xmlns:xlink="http://www.w3.org/1999/xlink" fill-opacity="1" color-rendering="auto" color-interpolation="auto" text-rendering="auto" stroke="black" stroke-linecap="square" width="586" stroke-miterlimit="10" shape-rendering="auto" stroke-opacity="1" fill="black" stroke-dasharray="none" font-weight="normal" stroke-width="1" height="374" font-family="'Dialog'" font-style="normal" stroke-linejoin="miter" font-size="12px" stroke-dashoffset="0" image-rendering="auto">
  <!--Generated by ySVG 2.6-->
  <defs id="genericDefs"/>
  <g>
    <defs id="defs1">
      <clipPath clipPathUnits="userSpaceOnUse" id="clipPath1">
        <path d="M0 0 L586 0 L586 374 L0 374 L0 0 Z"/>
      </clipPath>
      <clipPath clipPathUnits="userSpaceOnUse" id="clipPath2">
        <path d="M761 509 L1054 509 L1054 696 L761 696 L761 509 Z"/>
      </clipPath>
    </defs>
    <g fill="white" text-rendering="geometricPrecision" shape-rendering="geometricPrecision" transform="scale(2,2) translate(-761,-509)" stroke="white">
      <rect x="761" width="293" height="187" y="509" clip-path="url(#clipPath2)" stroke="none"/>
    </g>
    <g text-rendering="geometricPrecision" stroke-miterlimit="1.45" shape-rendering="geometricPrecision" transform="matrix(2,0,0,2,-1522,-1018)" stroke-linecap="butt">
      <path fill="none" d="M910.2562 642.8542 L968.0887 642.8542" clip-path="url(#clipPath2)"/>
      <path d="M976.0887 642.8542 L964.0887 637.8542 L967.0887 642.8542 L964.0887 647.8542 Z" clip-path="url(#clipPath2)" stroke="none"/>
      <rect x="926.1807" y="633.5037" clip-path="url(#clipPath2)" fill="white" width="34.0176" height="18.7012" stroke="none"/>
      <text x="928.1807" xml:space="preserve" y="647.5681" clip-path="url(#clipPath2)" font-family="sans-serif" stroke="none">roleIn</text>
      <path fill="none" d="M910.2562 602.8542 L968.0887 602.8542" clip-path="url(#clipPath2)"/>
      <path d="M976.0887 602.8542 L964.0887 597.8542 L967.0887 602.8542 L964.0887 607.8542 Z" clip-path="url(#clipPath2)" stroke="none"/>
      <rect x="926.1807" y="593.5037" clip-path="url(#clipPath2)" fill="white" width="34.0176" height="18.7012" stroke="none"/>
      <text x="928.1807" xml:space="preserve" y="607.5681" clip-path="url(#clipPath2)" font-family="sans-serif" stroke="none">roleIn</text>
      <path fill="none" d="M910.2562 682.8542 L968.0887 682.8542" clip-path="url(#clipPath2)"/>
      <path d="M976.0887 682.8542 L964.0887 677.8542 L967.0887 682.8542 L964.0887 687.8542 Z" clip-path="url(#clipPath2)" stroke="none"/>
      <rect x="926.1807" y="673.5037" clip-path="url(#clipPath2)" fill="white" width="34.0176" height="18.7012" stroke="none"/>
      <text x="928.1807" xml:space="preserve" y="687.5681" clip-path="url(#clipPath2)" font-family="sans-serif" stroke="none">roleIn</text>
      <path fill="none" d="M784.7098 642.8542 L775.216 642.8542 L775.216 547.8713" clip-path="url(#clipPath2)"/>
      <path fill="white" d="M775.216 532.8713 L769.216 548.8713 L781.216 548.8713 Z" clip-path="url(#clipPath2)" stroke="none"/>
      <path fill="none" d="M775.216 532.8713 L769.216 548.8713 L781.216 548.8713 Z" clip-path="url(#clipPath2)"/>
      <path fill="none" d="M784.7098 677.8542 L775.216 677.8542 L775.216 547.8332" clip-path="url(#clipPath2)"/>
      <path fill="white" d="M775.216 532.8332 L769.216 548.8332 L781.216 548.8332 Z" clip-path="url(#clipPath2)" stroke="none"/>
      <path fill="none" d="M775.216 532.8332 L769.216 548.8332 L781.216 548.8332 Z" clip-path="url(#clipPath2)"/>
      <path fill="none" d="M784.7098 562.8542 L775.216 562.8542 L775.216 547.8806" clip-path="url(#clipPath2)"/>
      <path fill="white" d="M775.216 532.8806 L769.216 548.8806 L781.216 548.8806 Z" clip-path="url(#clipPath2)" stroke="none"/>
      <path fill="none" d="M775.216 532.8806 L769.216 548.8806 L781.216 548.8806 Z" clip-path="url(#clipPath2)"/>
      <path fill="none" d="M784.7098 602.8542 L775.216 602.8542 L775.216 547.8152" clip-path="url(#clipPath2)"/>
      <path fill="white" d="M775.216 532.8152 L769.216 548.8152 L781.216 548.8152 Z" clip-path="url(#clipPath2)" stroke="none"/>
      <path fill="none" d="M775.216 532.8152 L769.216 548.8152 L781.216 548.8152 Z" clip-path="url(#clipPath2)"/>
      <path fill="none" d="M910.3098 522.8542 L1013.4518 522.8542 L1013.4518 544.8152" clip-path="url(#clipPath2)"/>
      <path d="M1013.4518 552.8152 L1018.4518 540.8152 L1013.4518 543.8152 L1008.4518 540.8152 Z" clip-path="url(#clipPath2)" stroke="none"/>
      <rect x="939.7438" y="513.5037" clip-path="url(#clipPath2)" fill="white" width="53.3652" height="18.7012" stroke="none"/>
      <text x="941.7438" xml:space="preserve" y="527.5681" clip-path="url(#clipPath2)" font-family="sans-serif" stroke="none">playedBy</text>
      <path fill="none" d="M910.2562 562.8542 L968.0887 562.8542" clip-path="url(#clipPath2)"/>
      <path d="M976.0887 562.8542 L964.0887 557.8542 L967.0887 562.8542 L964.0887 567.8542 Z" clip-path="url(#clipPath2)" stroke="none"/>
      <rect x="926.1807" y="553.5037" clip-path="url(#clipPath2)" fill="white" width="34.0176" height="18.7012" stroke="none"/>
      <text x="928.1807" xml:space="preserve" y="567.5681" clip-path="url(#clipPath2)" font-family="sans-serif" stroke="none">roleIn</text>
    </g>
    <g fill="rgb(247,149,29)" text-rendering="geometricPrecision" shape-rendering="geometricPrecision" transform="matrix(2,0,0,2,-1522,-1018)" stroke="rgb(247,149,29)">
      <rect x="976.103" y="632.8543" clip-path="url(#clipPath2)" width="74.6976" rx="4" ry="4" height="20" stroke="none"/>
    </g>
    <g stroke-linecap="butt" transform="matrix(2,0,0,2,-1522,-1018)" fill="white" text-rendering="geometricPrecision" font-family="sans-serif" shape-rendering="geometricPrecision" stroke="white" font-weight="bold" stroke-miterlimit="1.45">
      <text x="990.1022" xml:space="preserve" y="647.5681" clip-path="url(#clipPath2)" stroke="none">Process</text>
    </g>
    <g stroke-linecap="butt" transform="matrix(2,0,0,2,-1522,-1018)" fill="rgb(247,149,29)" text-rendering="geometricPrecision" shape-rendering="geometricPrecision" stroke="rgb(247,149,29)" stroke-miterlimit="1.45">
      <rect x="976.103" y="632.8543" clip-path="url(#clipPath2)" fill="none" width="74.6976" rx="4" ry="4" height="20"/>
    </g>
    <g fill="rgb(157,64,95)" text-rendering="geometricPrecision" shape-rendering="geometricPrecision" transform="matrix(2,0,0,2,-1522,-1018)" stroke="rgb(157,64,95)">
      <rect x="976.103" y="592.8543" clip-path="url(#clipPath2)" width="74.6976" rx="4" ry="4" height="20" stroke="none"/>
    </g>
    <g stroke-linecap="butt" transform="matrix(2,0,0,2,-1522,-1018)" fill="white" text-rendering="geometricPrecision" font-family="sans-serif" shape-rendering="geometricPrecision" stroke="white" font-weight="bold" stroke-miterlimit="1.45">
      <text x="987.7877" xml:space="preserve" y="607.5681" clip-path="url(#clipPath2)" stroke="none">Situation</text>
    </g>
    <g stroke-linecap="butt" transform="matrix(2,0,0,2,-1522,-1018)" fill="rgb(157,64,95)" text-rendering="geometricPrecision" shape-rendering="geometricPrecision" stroke="rgb(157,64,95)" stroke-miterlimit="1.45">
      <rect x="976.103" y="592.8543" clip-path="url(#clipPath2)" fill="none" width="74.6976" rx="4" ry="4" height="20"/>
    </g>
    <g stroke-linecap="butt" transform="matrix(2,0,0,2,-1522,-1018)" text-rendering="geometricPrecision" font-family="sans-serif" shape-rendering="geometricPrecision" font-weight="bold" stroke-miterlimit="1.45">
      <text x="805.8212" xml:space="preserve" y="687.5681" clip-path="url(#clipPath2)" stroke="none">RelationalRole</text>
    </g>
    <g stroke-linecap="butt" transform="matrix(2,0,0,2,-1522,-1018)" fill="rgb(73,114,136)" text-rendering="geometricPrecision" shape-rendering="geometricPrecision" stroke="rgb(73,114,136)" stroke-miterlimit="1.45">
      <rect x="784.716" y="672.8543" clip-path="url(#clipPath2)" fill="none" width="125.56" rx="4" ry="4" height="20"/>
    </g>
    <g stroke-linecap="butt" transform="matrix(2,0,0,2,-1522,-1018)" text-rendering="geometricPrecision" font-family="sans-serif" shape-rendering="geometricPrecision" font-weight="bold" stroke-miterlimit="1.45">
      <text x="992.7799" xml:space="preserve" y="687.5681" clip-path="url(#clipPath2)" stroke="none">Relator</text>
    </g>
    <g stroke-linecap="butt" transform="matrix(2,0,0,2,-1522,-1018)" fill="rgb(73,114,136)" text-rendering="geometricPrecision" shape-rendering="geometricPrecision" stroke="rgb(73,114,136)" stroke-miterlimit="1.45">
      <rect x="976.103" y="672.8543" clip-path="url(#clipPath2)" fill="none" width="74.6976" rx="4" ry="4" height="20"/>
    </g>
    <g stroke-linecap="butt" transform="matrix(2,0,0,2,-1522,-1018)" text-rendering="geometricPrecision" font-family="sans-serif" shape-rendering="geometricPrecision" font-weight="bold" stroke-miterlimit="1.45">
      <text x="824.494" xml:space="preserve" y="527.5681" clip-path="url(#clipPath2)" stroke="none">Role</text>
    </g>
    <g stroke-linecap="butt" transform="matrix(2,0,0,2,-1522,-1018)" fill="rgb(73,114,136)" text-rendering="geometricPrecision" shape-rendering="geometricPrecision" stroke="rgb(73,114,136)" stroke-miterlimit="1.45">
      <rect x="764.716" y="512.8543" clip-path="url(#clipPath2)" fill="none" width="145.56" rx="4" ry="4" height="20"/>
    </g>
    <g stroke-linecap="butt" transform="matrix(2,0,0,2,-1522,-1018)" text-rendering="geometricPrecision" font-family="sans-serif" shape-rendering="geometricPrecision" font-weight="bold" stroke-miterlimit="1.45">
      <text x="802.4755" xml:space="preserve" y="647.5681" clip-path="url(#clipPath2)" stroke="none">ProcessualRole</text>
    </g>
    <g stroke-linecap="butt" transform="matrix(2,0,0,2,-1522,-1018)" fill="rgb(73,114,136)" text-rendering="geometricPrecision" shape-rendering="geometricPrecision" stroke="rgb(73,114,136)" stroke-miterlimit="1.45">
      <rect x="784.716" y="632.8543" clip-path="url(#clipPath2)" fill="none" width="125.56" rx="4" ry="4" height="20"/>
    </g>
    <g stroke-linecap="butt" transform="matrix(2,0,0,2,-1522,-1018)" text-rendering="geometricPrecision" font-family="sans-serif" shape-rendering="geometricPrecision" font-weight="bold" stroke-miterlimit="1.45">
      <text x="791.1639" xml:space="preserve" y="567.5681" clip-path="url(#clipPath2)" stroke="none">ContinuantPartRole</text>
    </g>
    <g stroke-linecap="butt" transform="matrix(2,0,0,2,-1522,-1018)" fill="rgb(73,114,136)" text-rendering="geometricPrecision" shape-rendering="geometricPrecision" stroke="rgb(73,114,136)" stroke-miterlimit="1.45">
      <rect x="784.716" y="552.8543" clip-path="url(#clipPath2)" fill="none" width="125.56" rx="4" ry="4" height="20"/>
    </g>
    <g fill="rgb(243,101,35)" text-rendering="geometricPrecision" shape-rendering="geometricPrecision" transform="matrix(2,0,0,2,-1522,-1018)" stroke="rgb(243,101,35)">
      <rect x="976.103" y="552.8543" clip-path="url(#clipPath2)" width="74.6976" rx="4" ry="4" height="20" stroke="none"/>
    </g>
    <g stroke-linecap="butt" transform="matrix(2,0,0,2,-1522,-1018)" fill="white" text-rendering="geometricPrecision" font-family="sans-serif" shape-rendering="geometricPrecision" stroke="white" font-weight="bold" stroke-miterlimit="1.45">
      <text x="981.7936" xml:space="preserve" y="567.5681" clip-path="url(#clipPath2)" stroke="none">Continuant</text>
    </g>
    <g stroke-linecap="butt" transform="matrix(2,0,0,2,-1522,-1018)" fill="rgb(243,101,35)" text-rendering="geometricPrecision" shape-rendering="geometricPrecision" stroke="rgb(243,101,35)" stroke-miterlimit="1.45">
      <rect x="976.103" y="552.8543" clip-path="url(#clipPath2)" fill="none" width="74.6976" rx="4" ry="4" height="20"/>
    </g>
    <g stroke-linecap="butt" transform="matrix(2,0,0,2,-1522,-1018)" text-rendering="geometricPrecision" font-family="sans-serif" shape-rendering="geometricPrecision" font-weight="bold" stroke-miterlimit="1.45">
      <text x="803.826" xml:space="preserve" y="607.5681" clip-path="url(#clipPath2)" stroke="none">SituationalRole</text>
    </g>
    <g stroke-linecap="butt" transform="matrix(2,0,0,2,-1522,-1018)" fill="rgb(73,114,136)" text-rendering="geometricPrecision" shape-rendering="geometricPrecision" stroke="rgb(73,114,136)" stroke-miterlimit="1.45">
      <rect x="784.716" y="592.8543" clip-path="url(#clipPath2)" fill="none" width="125.56" rx="4" ry="4" height="20"/>
    </g>
  </g>
</svg>
