<?xml version="1.0" encoding="UTF-8"?><svg xmlns="http://www.w3.org/2000/svg" xmlns:xlink="http://www.w3.org/1999/xlink" fill-opacity="1" color-rendering="auto" color-interpolation="auto" text-rendering="auto" stroke="black" stroke-linecap="square" width="1620" stroke-miterlimit="10" shape-rendering="auto" stroke-opacity="1" fill="black" stroke-dasharray="none" font-weight="normal" stroke-width="1" height="968" font-family="'Dialog'" font-style="normal" stroke-linejoin="miter" font-size="12px" stroke-dashoffset="0" image-rendering="auto">
  <!--Generated by ySVG 2.6-->
  <defs id="genericDefs"/>
  <g>
    <defs id="defs1">
      <clipPath clipPathUnits="userSpaceOnUse" id="clipPath1">
        <path d="M0 0 L1620 0 L1620 968 L0 968 L0 0 Z"/>
      </clipPath>
      <clipPath clipPathUnits="userSpaceOnUse" id="clipPath2">
        <path d="M-119 -498 L691 -498 L691 -14 L-119 -14 L-119 -498 Z"/>
      </clipPath>
    </defs>
    <g fill="white" text-rendering="geometricPrecision" shape-rendering="geometricPrecision" transform="scale(2,2) translate(119,498)" stroke="white">
      <rect x="-119" width="810" height="484" y="-498" clip-path="url(#clipPath2)" stroke="none"/>
    </g>
    <g text-rendering="geometricPrecision" stroke-miterlimit="1.45" shape-rendering="geometricPrecision" transform="matrix(2,0,0,2,238,996)" stroke-linecap="butt">
      <path fill="none" d="M469.2399 -455.6995 L372.6864 -455.6995" clip-path="url(#clipPath2)"/>
      <path d="M364.6864 -455.6995 L376.6864 -450.6995 L373.6864 -455.6995 L376.6864 -460.6995 Z" clip-path="url(#clipPath2)" stroke="none"/>
      <rect x="386.2784" y="-465.0501" clip-path="url(#clipPath2)" fill="white" width="61.3633" height="18.7012" stroke="none"/>
      <text x="388.2784" xml:space="preserve" y="-450.9857" clip-path="url(#clipPath2)" font-family="sans-serif" stroke="none">instanceOf</text>
      <path fill="none" d="M519.7894 -347.3795 L568.7993 -347.3795" clip-path="url(#clipPath2)"/>
      <path d="M576.7993 -347.3795 L564.7993 -352.3795 L567.7993 -347.3795 L564.7993 -342.3795 Z" clip-path="url(#clipPath2)" stroke="none"/>
      <text x="525.2817" xml:space="preserve" y="-354.0163" clip-path="url(#clipPath2)" font-family="sans-serif" stroke="none">hasTime</text>
      <path fill="none" d="M310.5453 -107.3795 L430.76 -107.3795 L430.76 -347.3795 L450.9494 -347.3795" clip-path="url(#clipPath2)"/>
      <path d="M458.9494 -347.3795 L446.9494 -352.3795 L449.9494 -347.3795 L446.9494 -342.3795 Z" clip-path="url(#clipPath2)" stroke="none"/>
      <rect x="413.7512" y="-236.7301" clip-path="url(#clipPath2)" fill="white" width="34.0176" height="18.7012" stroke="none"/>
      <text x="415.7512" xml:space="preserve" y="-222.6657" clip-path="url(#clipPath2)" font-family="sans-serif" stroke="none">roleIn</text>
      <path fill="none" d="M329.699 -465.6966 L329.699 -484.6995 L366.9789 -484.6995" clip-path="url(#clipPath2)"/>
      <path fill="white" d="M381.9789 -484.6995 L365.9789 -490.6995 L365.9789 -478.6995 Z" clip-path="url(#clipPath2)" stroke="none"/>
      <path fill="none" d="M381.9789 -484.6995 L365.9789 -490.6995 L365.9789 -478.6995 Z" clip-path="url(#clipPath2)"/>
      <path fill="none" d="M504.221 -465.6966 L504.221 -484.6995 L466.9411 -484.6995" clip-path="url(#clipPath2)"/>
      <path fill="white" d="M451.9411 -484.6995 L467.9411 -478.6995 L467.9411 -490.6995 Z" clip-path="url(#clipPath2)" stroke="none"/>
      <path fill="none" d="M451.9411 -484.6995 L467.9411 -478.6995 L467.9411 -490.6995 Z" clip-path="url(#clipPath2)"/>
      <path fill="none" d="M310.5829 -147.3795 L367.26 -147.3795 L367.26 -329.3698" clip-path="url(#clipPath2)"/>
      <path d="M367.26 -337.3698 L362.26 -325.3698 L367.26 -328.3698 L372.26 -325.3698 Z" clip-path="url(#clipPath2)" stroke="none"/>
      <rect x="350.2512" y="-247.1676" clip-path="url(#clipPath2)" fill="white" width="34.0176" height="18.7012" stroke="none"/>
      <text x="352.2512" xml:space="preserve" y="-233.1032" clip-path="url(#clipPath2)" font-family="sans-serif" stroke="none">roleIn</text>
      <path fill="none" d="M479.371 -357.403 L479.371 -375.5 L377.26 -375.5 L377.26 -365.403" clip-path="url(#clipPath2)"/>
      <path d="M377.26 -357.403 L382.26 -369.403 L377.26 -366.403 L372.26 -369.403 Z" clip-path="url(#clipPath2)" stroke="none"/>
      <rect x="383.9639" y="-384.8506" clip-path="url(#clipPath2)" fill="white" width="88.7031" height="18.7012" stroke="none"/>
      <text x="385.9639" xml:space="preserve" y="-370.7861" clip-path="url(#clipPath2)" font-family="sans-serif" stroke="none">hasProcessPart</text>
      <path fill="none" d="M227.78 -357.3893 L227.78 -397.3795 L287.8663 -397.3795" clip-path="url(#clipPath2)"/>
      <path fill="white" d="M302.8663 -397.3795 L286.8663 -403.3795 L286.8663 -391.3795 Z" clip-path="url(#clipPath2)" stroke="none"/>
      <path fill="none" d="M302.8663 -397.3795 L286.8663 -403.3795 L286.8663 -391.3795 Z" clip-path="url(#clipPath2)"/>
      <path fill="none" d="M367.26 -357.3893 L367.26 -372.3429" clip-path="url(#clipPath2)"/>
      <path fill="white" d="M367.26 -387.3429 L361.26 -371.3429 L373.26 -371.3429 Z" clip-path="url(#clipPath2)" stroke="none"/>
      <path fill="none" d="M367.26 -387.3429 L361.26 -371.3429 L373.26 -371.3429 Z" clip-path="url(#clipPath2)"/>
      <path fill="none" d="M-37.6752 -357.3893 L-37.6752 -397.3795 L287.852 -397.3795" clip-path="url(#clipPath2)"/>
      <path fill="white" d="M302.852 -397.3795 L286.852 -403.3795 L286.852 -391.3795 Z" clip-path="url(#clipPath2)" stroke="none"/>
      <path fill="none" d="M302.852 -397.3795 L286.852 -403.3795 L286.852 -391.3795 Z" clip-path="url(#clipPath2)"/>
      <path fill="none" d="M489.371 -357.3551 L489.371 -392.3795 L446.6843 -392.3795" clip-path="url(#clipPath2)"/>
      <path fill="white" d="M431.6843 -392.3795 L447.6843 -386.3795 L447.6843 -398.3795 Z" clip-path="url(#clipPath2)" stroke="none"/>
      <path fill="none" d="M431.6843 -392.3795 L447.6843 -386.3795 L447.6843 -398.3795 Z" clip-path="url(#clipPath2)"/>
      <path fill="none" d="M667.8937 -307.3795 L677.342 -307.3795 L677.342 -372.404" clip-path="url(#clipPath2)"/>
      <path fill="white" d="M677.342 -387.404 L671.342 -371.404 L683.342 -371.404 Z" clip-path="url(#clipPath2)" stroke="none"/>
      <path fill="none" d="M677.342 -387.404 L671.342 -371.404 L683.342 -371.404 Z" clip-path="url(#clipPath2)"/>
      <path fill="none" d="M667.8937 -347.3795 L677.342 -347.3795 L677.342 -372.3698" clip-path="url(#clipPath2)"/>
      <path fill="white" d="M677.342 -387.3698 L671.342 -371.3698 L683.342 -371.3698 Z" clip-path="url(#clipPath2)" stroke="none"/>
      <path fill="none" d="M677.342 -387.3698 L671.342 -371.3698 L683.342 -371.3698 Z" clip-path="url(#clipPath2)"/>
      <path fill="none" d="M431.6861 -402.3795 L568.7403 -402.3795" clip-path="url(#clipPath2)"/>
      <path d="M576.7403 -402.3795 L564.7403 -407.3795 L567.7403 -402.3795 L564.7403 -397.3795 Z" clip-path="url(#clipPath2)" stroke="none"/>
      <rect x="479.2142" y="-411.7301" clip-path="url(#clipPath2)" fill="white" width="50.0137" height="18.7012" stroke="none"/>
      <text x="481.2142" xml:space="preserve" y="-397.6657" clip-path="url(#clipPath2)" font-family="sans-serif" stroke="none">hasTime</text>
      <path fill="none" d="M310.5241 -187.3795 L334.5456 -187.3795 L334.5456 -267.3795 L318.5905 -267.3795" clip-path="url(#clipPath2)"/>
      <path d="M310.5905 -267.3795 L322.5905 -262.3795 L319.5905 -267.3795 L322.5905 -272.3795 Z" clip-path="url(#clipPath2)" stroke="none"/>
      <rect x="317.5368" y="-236.7301" clip-path="url(#clipPath2)" fill="white" width="34.0176" height="18.7012" stroke="none"/>
      <text x="319.5368" xml:space="preserve" y="-222.6657" clip-path="url(#clipPath2)" font-family="sans-serif" stroke="none">roleIn</text>
      <path fill="none" d="M184.9938 -107.3795 L175.5 -107.3795 L175.5 -202.3625" clip-path="url(#clipPath2)"/>
      <path fill="white" d="M175.5 -217.3625 L169.5 -201.3625 L181.5 -201.3625 Z" clip-path="url(#clipPath2)" stroke="none"/>
      <path fill="none" d="M175.5 -217.3625 L169.5 -201.3625 L181.5 -201.3625 Z" clip-path="url(#clipPath2)"/>
      <path fill="none" d="M184.9938 -72.3795 L175.5 -72.3795 L175.5 -202.4006" clip-path="url(#clipPath2)"/>
      <path fill="white" d="M175.5 -217.4006 L169.5 -201.4006 L181.5 -201.4006 Z" clip-path="url(#clipPath2)" stroke="none"/>
      <path fill="none" d="M175.5 -217.4006 L169.5 -201.4006 L181.5 -201.4006 Z" clip-path="url(#clipPath2)"/>
      <path fill="none" d="M184.9938 -187.3795 L175.5 -187.3795 L175.5 -202.3533" clip-path="url(#clipPath2)"/>
      <path fill="white" d="M175.5 -217.3533 L169.5 -201.3533 L181.5 -201.3533 Z" clip-path="url(#clipPath2)" stroke="none"/>
      <path fill="none" d="M175.5 -217.3533 L169.5 -201.3533 L181.5 -201.3533 Z" clip-path="url(#clipPath2)"/>
      <path fill="none" d="M184.9938 -147.3795 L175.5 -147.3795 L175.5 -202.4186" clip-path="url(#clipPath2)"/>
      <path fill="white" d="M175.5 -217.4186 L169.5 -201.4186 L181.5 -201.4186 Z" clip-path="url(#clipPath2)" stroke="none"/>
      <path fill="none" d="M175.5 -217.4186 L169.5 -201.4186 L181.5 -201.4186 Z" clip-path="url(#clipPath2)"/>
      <path fill="none" d="M165.0217 -232.3795 L155.5 -232.3795 L155.5 -322.3845" clip-path="url(#clipPath2)"/>
      <path fill="white" d="M155.5 -337.3845 L149.5 -321.3845 L161.5 -321.3845 Z" clip-path="url(#clipPath2)" stroke="none"/>
      <path fill="none" d="M155.5 -337.3845 L149.5 -321.3845 L161.5 -321.3845 Z" clip-path="url(#clipPath2)"/>
      <path fill="none" d="M165.0217 -307.3795 L155.5 -307.3795 L155.5 -322.3967" clip-path="url(#clipPath2)"/>
      <path fill="white" d="M155.5 -337.3967 L149.5 -321.3967 L161.5 -321.3967 Z" clip-path="url(#clipPath2)" stroke="none"/>
      <path fill="none" d="M155.5 -337.3967 L149.5 -321.3967 L161.5 -321.3967 Z" clip-path="url(#clipPath2)"/>
      <path fill="none" d="M165.0217 -267.3795 L155.5 -267.3795 L155.5 -322.3795" clip-path="url(#clipPath2)"/>
      <path fill="white" d="M155.5 -337.3795 L149.5 -321.3795 L161.5 -321.3795 Z" clip-path="url(#clipPath2)" stroke="none"/>
      <path fill="none" d="M155.5 -337.3795 L149.5 -321.3795 L161.5 -321.3795 Z" clip-path="url(#clipPath2)"/>
      <path fill="none" d="M357.26 -357.403 L357.26 -375.5 L237.78 -375.5 L237.78 -365.403" clip-path="url(#clipPath2)"/>
      <path d="M237.78 -357.403 L242.78 -369.403 L237.78 -366.403 L232.78 -369.403 Z" clip-path="url(#clipPath2)" stroke="none"/>
      <rect x="251.4927" y="-384.8506" clip-path="url(#clipPath2)" fill="white" width="92.0547" height="18.7012" stroke="none"/>
      <text x="253.4927" xml:space="preserve" y="-370.7861" clip-path="url(#clipPath2)" font-family="sans-serif" stroke="none">hasSituationPart</text>
      <path fill="none" d="M-17.6752 -89.4186 L-17.6752 -77.3828" clip-path="url(#clipPath2)"/>
      <path d="M-17.6752 -97.4186 L-22.6752 -85.4186 L-17.6752 -88.4186 L-12.6752 -85.4186 Z" clip-path="url(#clipPath2)" stroke="none"/>
      <text x="-11.6752" xml:space="preserve" y="-82.6657" clip-path="url(#clipPath2)" font-family="sans-serif" stroke="none">boundaryOf</text>
      <path fill="none" d="M-95.6586 -147.3795 L-105.6752 -147.3795 L-105.6752 -322.3698" clip-path="url(#clipPath2)"/>
      <path fill="white" d="M-105.6752 -337.3698 L-111.6752 -321.3698 L-99.6752 -321.3698 Z" clip-path="url(#clipPath2)" stroke="none"/>
      <path fill="none" d="M-105.6752 -337.3698 L-111.6752 -321.3698 L-99.6752 -321.3698 Z" clip-path="url(#clipPath2)"/>
      <path fill="none" d="M165.0115 -222.3795 L126.688 -222.3795 L126.688 -352.3795 L48.293 -352.3795" clip-path="url(#clipPath2)"/>
      <path d="M40.293 -352.3795 L52.293 -347.3795 L49.293 -352.3795 L52.293 -357.3795 Z" clip-path="url(#clipPath2)" stroke="none"/>
      <rect x="100.0054" y="-296.7301" clip-path="url(#clipPath2)" fill="white" width="53.3652" height="18.7012" stroke="none"/>
      <text x="102.0054" xml:space="preserve" y="-282.6657" clip-path="url(#clipPath2)" font-family="sans-serif" stroke="none">playedBy</text>
      <path fill="none" d="M184.9687 -62.3795 L95.456 -62.3795 L95.456 -342.3795 L48.3182 -342.3795" clip-path="url(#clipPath2)"/>
      <path d="M40.3182 -342.3795 L52.3182 -337.3795 L49.3182 -342.3795 L52.3182 -347.3795 Z" clip-path="url(#clipPath2)" stroke="none"/>
      <rect x="78.4472" y="-211.7301" clip-path="url(#clipPath2)" fill="white" width="34.0176" height="18.7012" stroke="none"/>
      <text x="80.4472" xml:space="preserve" y="-197.6657" clip-path="url(#clipPath2)" font-family="sans-serif" stroke="none">roleIn</text>
      <path fill="none" d="M-95.6586 -307.3795 L-105.6752 -307.3795 L-105.6752 -322.4186" clip-path="url(#clipPath2)"/>
      <path fill="white" d="M-105.6752 -337.4186 L-111.6752 -321.4186 L-99.6752 -321.4186 Z" clip-path="url(#clipPath2)" stroke="none"/>
      <path fill="none" d="M-105.6752 -337.4186 L-111.6752 -321.4186 L-99.6752 -321.4186 Z" clip-path="url(#clipPath2)"/>
      <path fill="none" d="M-75.6811 -107.3795 L-85.6752 -107.3795 L-85.6752 -122.4186" clip-path="url(#clipPath2)"/>
      <path fill="white" d="M-85.6752 -137.4186 L-91.6752 -121.4186 L-79.6752 -121.4186 Z" clip-path="url(#clipPath2)" stroke="none"/>
      <path fill="none" d="M-85.6752 -137.4186 L-91.6752 -121.4186 L-79.6752 -121.4186 Z" clip-path="url(#clipPath2)"/>
      <path fill="none" d="M-75.6811 -67.3795 L-85.6752 -67.3795 L-85.6752 -122.4186" clip-path="url(#clipPath2)"/>
      <path fill="white" d="M-85.6752 -137.4186 L-91.6752 -121.4186 L-79.6752 -121.4186 Z" clip-path="url(#clipPath2)" stroke="none"/>
      <path fill="none" d="M-85.6752 -137.4186 L-91.6752 -121.4186 L-79.6752 -121.4186 Z" clip-path="url(#clipPath2)"/>
      <path fill="none" d="M-75.6811 -27.3795 L-85.6752 -27.3795 L-85.6752 -122.3893" clip-path="url(#clipPath2)"/>
      <path fill="white" d="M-85.6752 -137.3893 L-91.6752 -121.3893 L-79.6752 -121.3893 Z" clip-path="url(#clipPath2)" stroke="none"/>
      <path fill="none" d="M-85.6752 -137.3893 L-91.6752 -121.3893 L-79.6752 -121.3893 Z" clip-path="url(#clipPath2)"/>
      <path fill="none" d="M-17.6752 -49.4186 L-17.6752 -37.3828" clip-path="url(#clipPath2)"/>
      <path d="M-17.6752 -57.4186 L-22.6752 -45.4186 L-17.6752 -48.4186 L-12.6752 -45.4186 Z" clip-path="url(#clipPath2)" stroke="none"/>
      <text x="-11.6752" xml:space="preserve" y="-42.6657" clip-path="url(#clipPath2)" font-family="sans-serif" stroke="none">boundaryOf</text>
      <path fill="none" d="M40.315 -107.3795 L56.4133 -107.3795 L56.4133 -187.3795 L48.3134 -187.3795" clip-path="url(#clipPath2)"/>
      <path d="M40.3134 -187.3795 L52.3134 -182.3795 L49.3134 -187.3795 L52.3134 -192.3795 Z" clip-path="url(#clipPath2)" stroke="none"/>
      <rect x="23.0598" y="-137.9284" clip-path="url(#clipPath2)" fill="white" width="66.707" height="18.7012" stroke="none"/>
      <text x="25.0598" xml:space="preserve" y="-123.864" clip-path="url(#clipPath2)" font-family="sans-serif" stroke="none">boundaryOf</text>
      <path fill="none" d="M-15.4224 -217.4186 L-15.4224 -205.3828" clip-path="url(#clipPath2)"/>
      <path d="M-15.4224 -197.3828 L-10.4224 -209.3828 L-15.4224 -206.3828 L-20.4224 -209.3828 Z" clip-path="url(#clipPath2)" stroke="none"/>
      <text x="-9.4224" xml:space="preserve" y="-202.6657" clip-path="url(#clipPath2)" font-family="sans-serif" stroke="none">partOf</text>
      <path fill="none" d="M367.26 -407.3535 L367.26 -420.4867 L504.221 -420.4867 L504.221 -430.6927" clip-path="url(#clipPath2)"/>
      <path fill="white" d="M504.221 -445.6927 L498.221 -429.6927 L510.221 -429.6927 Z" clip-path="url(#clipPath2)" stroke="none"/>
      <path fill="none" d="M504.221 -445.6927 L498.221 -429.6927 L510.221 -429.6927 Z" clip-path="url(#clipPath2)"/>
      <path fill="none" d="M632.342 -407.3535 L632.342 -420.4867 L504.221 -420.4867 L504.221 -430.6927" clip-path="url(#clipPath2)"/>
      <path fill="white" d="M504.221 -445.6927 L498.221 -429.6927 L510.221 -429.6927 Z" clip-path="url(#clipPath2)" stroke="none"/>
      <path fill="none" d="M504.221 -445.6927 L498.221 -429.6927 L510.221 -429.6927 Z" clip-path="url(#clipPath2)"/>
      <path fill="none" d="M-71.1743 -267.3795 L-79.3887 -267.3795 L-79.3887 -282.4095" clip-path="url(#clipPath2)"/>
      <path fill="white" d="M-79.3887 -297.4095 L-85.3887 -281.4095 L-73.3887 -281.4095 Z" clip-path="url(#clipPath2)" stroke="none"/>
      <path fill="none" d="M-79.3887 -297.4095 L-85.3887 -281.4095 L-73.3887 -281.4095 Z" clip-path="url(#clipPath2)"/>
      <path fill="none" d="M-71.1743 -187.3795 L-79.3887 -187.3795 L-79.3887 -282.3893" clip-path="url(#clipPath2)"/>
      <path fill="white" d="M-79.3887 -297.3893 L-85.3887 -281.3893 L-73.3887 -281.3893 Z" clip-path="url(#clipPath2)" stroke="none"/>
      <path fill="none" d="M-79.3887 -297.3893 L-85.3887 -281.3893 L-73.3887 -281.3893 Z" clip-path="url(#clipPath2)"/>
      <path fill="none" d="M-15.4224 -277.3666 L-15.4224 -289.37" clip-path="url(#clipPath2)"/>
      <path d="M-15.4224 -297.37 L-20.4224 -285.37 L-15.4224 -288.37 L-10.4224 -285.37 Z" clip-path="url(#clipPath2)" stroke="none"/>
      <text x="-9.4224" xml:space="preserve" y="-282.6657" clip-path="url(#clipPath2)" font-family="sans-serif" stroke="none">hasMember</text>
      <path fill="none" d="M-91.8 -157.404 L-91.8 -289.3809" clip-path="url(#clipPath2)"/>
      <path d="M-91.8 -297.3809 L-96.8 -285.3809 L-91.8 -288.3809 L-86.8 -285.3809 Z" clip-path="url(#clipPath2)" stroke="none"/>
      <rect x="-100.5441" y="-181.1522" clip-path="url(#clipPath2)" fill="white" width="58.6914" height="18.7012" stroke="none"/>
      <text x="-98.5441" xml:space="preserve" y="-167.0877" clip-path="url(#clipPath2)" font-family="sans-serif" stroke="none">hasOwner</text>
      <path fill="none" d="M-71.1743 -227.3795 L-79.3887 -227.3795 L-79.3887 -282.4186" clip-path="url(#clipPath2)"/>
      <path fill="white" d="M-79.3887 -297.4186 L-85.3887 -281.4186 L-73.3887 -281.4186 Z" clip-path="url(#clipPath2)" stroke="none"/>
      <path fill="none" d="M-79.3887 -297.4186 L-85.3887 -281.4186 L-73.3887 -281.4186 Z" clip-path="url(#clipPath2)"/>
    </g>
    <g fill="rgb(150,150,150)" text-rendering="geometricPrecision" shape-rendering="geometricPrecision" transform="matrix(2,0,0,2,238,996)" stroke="rgb(150,150,150)">
      <rect x="294.699" y="-465.6995" clip-path="url(#clipPath2)" width="70" rx="4" ry="4" height="20" stroke="none"/>
    </g>
    <g stroke-linecap="butt" transform="matrix(2,0,0,2,238,996)" fill="white" text-rendering="geometricPrecision" font-family="sans-serif" shape-rendering="geometricPrecision" stroke="white" font-weight="bold" stroke-miterlimit="1.45">
      <text x="303.6922" xml:space="preserve" y="-450.9857" clip-path="url(#clipPath2)" stroke="none">Category</text>
    </g>
    <g stroke-linecap="butt" transform="matrix(2,0,0,2,238,996)" fill="rgb(150,150,150)" text-rendering="geometricPrecision" shape-rendering="geometricPrecision" stroke="rgb(150,150,150)" stroke-miterlimit="1.45">
      <rect x="294.699" y="-465.6995" clip-path="url(#clipPath2)" fill="none" width="70" rx="4" ry="4" height="20"/>
    </g>
    <g stroke-linecap="butt" transform="matrix(2,0,0,2,238,996)" text-rendering="geometricPrecision" font-family="sans-serif" shape-rendering="geometricPrecision" font-weight="bold" stroke-miterlimit="1.45">
      <text x="595.6818" xml:space="preserve" y="-342.6657" clip-path="url(#clipPath2)" stroke="none">Chronoid</text>
    </g>
    <g stroke-linecap="butt" transform="matrix(2,0,0,2,238,996)" fill="rgb(43,138,132)" text-rendering="geometricPrecision" shape-rendering="geometricPrecision" stroke="rgb(43,138,132)" stroke-miterlimit="1.45">
      <rect x="576.782" y="-357.3795" clip-path="url(#clipPath2)" fill="none" width="91.12" rx="4" ry="4" height="20"/>
    </g>
    <g fill="rgb(247,149,29)" text-rendering="geometricPrecision" shape-rendering="geometricPrecision" transform="matrix(2,0,0,2,238,996)" stroke="rgb(247,149,29)">
      <rect x="458.947" y="-357.3795" clip-path="url(#clipPath2)" width="60.848" rx="4" ry="4" height="20" stroke="none"/>
    </g>
    <g stroke-linecap="butt" transform="matrix(2,0,0,2,238,996)" fill="white" text-rendering="geometricPrecision" font-family="sans-serif" shape-rendering="geometricPrecision" stroke="white" font-weight="bold" stroke-miterlimit="1.45">
      <text x="466.0214" xml:space="preserve" y="-342.6657" clip-path="url(#clipPath2)" stroke="none">Process</text>
    </g>
    <g stroke-linecap="butt" transform="matrix(2,0,0,2,238,996)" fill="rgb(247,149,29)" text-rendering="geometricPrecision" shape-rendering="geometricPrecision" stroke="rgb(247,149,29)" stroke-miterlimit="1.45">
      <rect x="458.947" y="-357.3795" clip-path="url(#clipPath2)" fill="none" width="60.848" rx="4" ry="4" height="20"/>
    </g>
    <g fill="rgb(150,150,150)" text-rendering="geometricPrecision" shape-rendering="geometricPrecision" transform="matrix(2,0,0,2,238,996)" stroke="rgb(150,150,150)">
      <rect x="381.96" y="-494.6995" clip-path="url(#clipPath2)" width="70" rx="4" ry="4" height="20" stroke="none"/>
    </g>
    <g stroke-linecap="butt" transform="matrix(2,0,0,2,238,996)" fill="white" text-rendering="geometricPrecision" font-family="sans-serif" shape-rendering="geometricPrecision" stroke="white" font-weight="bold" stroke-miterlimit="1.45">
      <text x="400.293" xml:space="preserve" y="-479.9857" clip-path="url(#clipPath2)" stroke="none">Entity</text>
    </g>
    <g stroke-linecap="butt" transform="matrix(2,0,0,2,238,996)" fill="rgb(150,150,150)" text-rendering="geometricPrecision" shape-rendering="geometricPrecision" stroke="rgb(150,150,150)" stroke-miterlimit="1.45">
      <rect x="381.96" y="-494.6995" clip-path="url(#clipPath2)" fill="none" width="70" rx="4" ry="4" height="20"/>
    </g>
    <g fill="rgb(157,64,95)" text-rendering="geometricPrecision" shape-rendering="geometricPrecision" transform="matrix(2,0,0,2,238,996)" stroke="rgb(157,64,95)">
      <rect x="332.56" y="-357.3795" clip-path="url(#clipPath2)" width="69.4" rx="4" ry="4" height="20" stroke="none"/>
    </g>
    <g stroke-linecap="butt" transform="matrix(2,0,0,2,238,996)" fill="white" text-rendering="geometricPrecision" font-family="sans-serif" shape-rendering="geometricPrecision" stroke="white" font-weight="bold" stroke-miterlimit="1.45">
      <text x="341.5959" xml:space="preserve" y="-342.6657" clip-path="url(#clipPath2)" stroke="none">Situation</text>
    </g>
    <g stroke-linecap="butt" transform="matrix(2,0,0,2,238,996)" fill="rgb(157,64,95)" text-rendering="geometricPrecision" shape-rendering="geometricPrecision" stroke="rgb(157,64,95)" stroke-miterlimit="1.45">
      <rect x="332.56" y="-357.3795" clip-path="url(#clipPath2)" fill="none" width="69.4" rx="4" ry="4" height="20"/>
    </g>
    <g fill="rgb(150,150,150)" text-rendering="geometricPrecision" shape-rendering="geometricPrecision" transform="matrix(2,0,0,2,238,996)" stroke="rgb(150,150,150)">
      <rect x="302.86" y="-407.3795" clip-path="url(#clipPath2)" width="128.8" rx="4" ry="4" height="20" stroke="none"/>
    </g>
    <g stroke-linecap="butt" transform="matrix(2,0,0,2,238,996)" fill="white" text-rendering="geometricPrecision" font-family="sans-serif" shape-rendering="geometricPrecision" stroke="white" font-weight="bold" stroke-miterlimit="1.45">
      <text x="313.2512" xml:space="preserve" y="-392.6657" clip-path="url(#clipPath2)" stroke="none">ConcreteIndividual</text>
    </g>
    <g stroke-linecap="butt" transform="matrix(2,0,0,2,238,996)" fill="rgb(150,150,150)" text-rendering="geometricPrecision" shape-rendering="geometricPrecision" stroke="rgb(150,150,150)" stroke-miterlimit="1.45">
      <rect x="302.86" y="-407.3795" clip-path="url(#clipPath2)" fill="none" width="128.8" rx="4" ry="4" height="20"/>
    </g>
    <g fill="rgb(43,138,132)" text-rendering="geometricPrecision" shape-rendering="geometricPrecision" transform="matrix(2,0,0,2,238,996)" stroke="rgb(43,138,132)">
      <rect x="576.782" y="-407.3795" clip-path="url(#clipPath2)" width="111.12" rx="4" ry="4" height="20" stroke="none"/>
    </g>
    <g stroke-linecap="butt" transform="matrix(2,0,0,2,238,996)" fill="white" text-rendering="geometricPrecision" font-family="sans-serif" shape-rendering="geometricPrecision" stroke="white" font-weight="bold" stroke-miterlimit="1.45">
      <text x="601.6711" xml:space="preserve" y="-392.6657" clip-path="url(#clipPath2)" stroke="none">TimeEntity</text>
    </g>
    <g stroke-linecap="butt" transform="matrix(2,0,0,2,238,996)" fill="rgb(43,138,132)" text-rendering="geometricPrecision" shape-rendering="geometricPrecision" stroke="rgb(43,138,132)" stroke-miterlimit="1.45">
      <rect x="576.782" y="-407.3795" clip-path="url(#clipPath2)" fill="none" width="111.12" rx="4" ry="4" height="20"/>
    </g>
    <g stroke-linecap="butt" transform="matrix(2,0,0,2,238,996)" text-rendering="geometricPrecision" font-family="sans-serif" shape-rendering="geometricPrecision" font-weight="bold" stroke-miterlimit="1.45">
      <text x="580.3361" xml:space="preserve" y="-302.6657" clip-path="url(#clipPath2)" stroke="none">TimeBoundary</text>
    </g>
    <g stroke-linecap="butt" transform="matrix(2,0,0,2,238,996)" fill="rgb(43,138,132)" text-rendering="geometricPrecision" shape-rendering="geometricPrecision" stroke="rgb(43,138,132)" stroke-miterlimit="1.45">
      <rect x="576.782" y="-317.3795" clip-path="url(#clipPath2)" fill="none" width="91.12" rx="4" ry="4" height="20"/>
    </g>
    <g stroke-linecap="butt" transform="matrix(2,0,0,2,238,996)" text-rendering="geometricPrecision" font-family="sans-serif" shape-rendering="geometricPrecision" font-weight="bold" stroke-miterlimit="1.45">
      <text x="191.448" xml:space="preserve" y="-62.6657" clip-path="url(#clipPath2)" stroke="none">ContinuantPartRole</text>
    </g>
    <g stroke-linecap="butt" transform="matrix(2,0,0,2,238,996)" fill="rgb(73,114,136)" text-rendering="geometricPrecision" shape-rendering="geometricPrecision" stroke="rgb(73,114,136)" stroke-miterlimit="1.45">
      <rect x="185" y="-77.3795" clip-path="url(#clipPath2)" fill="none" width="125.56" rx="4" ry="4" height="20"/>
    </g>
    <g stroke-linecap="butt" transform="matrix(2,0,0,2,238,996)" text-rendering="geometricPrecision" font-family="sans-serif" shape-rendering="geometricPrecision" font-weight="bold" stroke-miterlimit="1.45">
      <text x="217.1081" xml:space="preserve" y="-262.6657" clip-path="url(#clipPath2)" stroke="none">Relator</text>
    </g>
    <g stroke-linecap="butt" transform="matrix(2,0,0,2,238,996)" fill="rgb(73,114,136)" text-rendering="geometricPrecision" shape-rendering="geometricPrecision" stroke="rgb(73,114,136)" stroke-miterlimit="1.45">
      <rect x="165" y="-277.3795" clip-path="url(#clipPath2)" fill="none" width="145.56" rx="4" ry="4" height="20"/>
    </g>
    <g stroke-linecap="butt" transform="matrix(2,0,0,2,238,996)" text-rendering="geometricPrecision" font-family="sans-serif" shape-rendering="geometricPrecision" font-weight="bold" stroke-miterlimit="1.45">
      <text x="224.778" xml:space="preserve" y="-222.6657" clip-path="url(#clipPath2)" stroke="none">Role</text>
    </g>
    <g stroke-linecap="butt" transform="matrix(2,0,0,2,238,996)" fill="rgb(73,114,136)" text-rendering="geometricPrecision" shape-rendering="geometricPrecision" stroke="rgb(73,114,136)" stroke-miterlimit="1.45">
      <rect x="165" y="-237.3795" clip-path="url(#clipPath2)" fill="none" width="145.56" rx="4" ry="4" height="20"/>
    </g>
    <g stroke-linecap="butt" transform="matrix(2,0,0,2,238,996)" text-rendering="geometricPrecision" font-family="sans-serif" shape-rendering="geometricPrecision" font-weight="bold" stroke-miterlimit="1.45">
      <text x="202.7595" xml:space="preserve" y="-102.6657" clip-path="url(#clipPath2)" stroke="none">ProcessualRole</text>
    </g>
    <g stroke-linecap="butt" transform="matrix(2,0,0,2,238,996)" fill="rgb(73,114,136)" text-rendering="geometricPrecision" shape-rendering="geometricPrecision" stroke="rgb(73,114,136)" stroke-miterlimit="1.45">
      <rect x="185" y="-117.3795" clip-path="url(#clipPath2)" fill="none" width="125.56" rx="4" ry="4" height="20"/>
    </g>
    <g stroke-linecap="butt" transform="matrix(2,0,0,2,238,996)" text-rendering="geometricPrecision" font-family="sans-serif" shape-rendering="geometricPrecision" font-weight="bold" stroke-miterlimit="1.45">
      <text x="206.1052" xml:space="preserve" y="-182.6657" clip-path="url(#clipPath2)" stroke="none">RelationalRole</text>
    </g>
    <g stroke-linecap="butt" transform="matrix(2,0,0,2,238,996)" fill="rgb(73,114,136)" text-rendering="geometricPrecision" shape-rendering="geometricPrecision" stroke="rgb(73,114,136)" stroke-miterlimit="1.45">
      <rect x="185" y="-197.3795" clip-path="url(#clipPath2)" fill="none" width="125.56" rx="4" ry="4" height="20"/>
    </g>
    <g stroke-linecap="butt" transform="matrix(2,0,0,2,238,996)" text-rendering="geometricPrecision" font-family="sans-serif" shape-rendering="geometricPrecision" font-weight="bold" stroke-miterlimit="1.45">
      <text x="217.4421" xml:space="preserve" y="-302.6657" clip-path="url(#clipPath2)" stroke="none">Quality</text>
    </g>
    <g stroke-linecap="butt" transform="matrix(2,0,0,2,238,996)" fill="rgb(73,114,136)" text-rendering="geometricPrecision" shape-rendering="geometricPrecision" stroke="rgb(73,114,136)" stroke-miterlimit="1.45">
      <rect x="165" y="-317.3795" clip-path="url(#clipPath2)" fill="none" width="145.56" rx="4" ry="4" height="20"/>
      <rect stroke-linecap="square" x="145" y="-357.3795" clip-path="url(#clipPath2)" width="165.56" rx="4" ry="4" height="20" stroke="none" stroke-miterlimit="10"/>
    </g>
    <g stroke-linecap="butt" transform="matrix(2,0,0,2,238,996)" fill="white" text-rendering="geometricPrecision" font-family="sans-serif" shape-rendering="geometricPrecision" stroke="white" font-weight="bold" stroke-miterlimit="1.45">
      <text x="197.78" xml:space="preserve" y="-342.6657" clip-path="url(#clipPath2)" stroke="none">Attributive</text>
    </g>
    <g stroke-linecap="butt" transform="matrix(2,0,0,2,238,996)" fill="rgb(73,114,136)" text-rendering="geometricPrecision" shape-rendering="geometricPrecision" stroke="rgb(73,114,136)" stroke-miterlimit="1.45">
      <rect x="145" y="-357.3795" clip-path="url(#clipPath2)" fill="none" width="165.56" rx="4" ry="4" height="20"/>
    </g>
    <g stroke-linecap="butt" transform="matrix(2,0,0,2,238,996)" text-rendering="geometricPrecision" font-family="sans-serif" shape-rendering="geometricPrecision" font-weight="bold" stroke-miterlimit="1.45">
      <text x="-30.0092" xml:space="preserve" y="-62.6657" clip-path="url(#clipPath2)" stroke="none">Line</text>
    </g>
    <g stroke-linecap="butt" transform="matrix(2,0,0,2,238,996)" fill="rgb(243,101,35)" text-rendering="geometricPrecision" shape-rendering="geometricPrecision" stroke="rgb(243,101,35)" stroke-miterlimit="1.45">
      <rect x="-75.664" y="-77.3795" clip-path="url(#clipPath2)" fill="none" width="115.9776" rx="4" ry="4" height="20"/>
      <rect stroke-linecap="square" x="-115.664" y="-357.3795" clip-path="url(#clipPath2)" width="155.9776" rx="4" ry="4" height="20" stroke="none" stroke-miterlimit="10"/>
    </g>
    <g stroke-linecap="butt" transform="matrix(2,0,0,2,238,996)" fill="white" text-rendering="geometricPrecision" font-family="sans-serif" shape-rendering="geometricPrecision" stroke="white" font-weight="bold" stroke-miterlimit="1.45">
      <text x="-69.3334" xml:space="preserve" y="-342.6657" clip-path="url(#clipPath2)" stroke="none">Continuant</text>
    </g>
    <g stroke-linecap="butt" transform="matrix(2,0,0,2,238,996)" fill="rgb(243,101,35)" text-rendering="geometricPrecision" shape-rendering="geometricPrecision" stroke="rgb(243,101,35)" stroke-miterlimit="1.45">
      <rect x="-115.664" y="-357.3795" clip-path="url(#clipPath2)" fill="none" width="155.9776" rx="4" ry="4" height="20"/>
    </g>
    <g stroke-linecap="butt" transform="matrix(2,0,0,2,238,996)" text-rendering="geometricPrecision" font-family="sans-serif" shape-rendering="geometricPrecision" font-weight="bold" stroke-miterlimit="1.45">
      <text x="-89.3481" xml:space="preserve" y="-142.6657" clip-path="url(#clipPath2)" stroke="none">ImmaterialContinuant</text>
    </g>
    <g stroke-linecap="butt" transform="matrix(2,0,0,2,238,996)" fill="rgb(243,101,35)" text-rendering="geometricPrecision" shape-rendering="geometricPrecision" stroke="rgb(243,101,35)" stroke-miterlimit="1.45">
      <rect x="-95.664" y="-157.3795" clip-path="url(#clipPath2)" fill="none" width="135.9776" rx="4" ry="4" height="20"/>
    </g>
    <g stroke-linecap="butt" transform="matrix(2,0,0,2,238,996)" text-rendering="geometricPrecision" font-family="sans-serif" shape-rendering="geometricPrecision" font-weight="bold" stroke-miterlimit="1.45">
      <text x="-67.7701" xml:space="preserve" y="-262.6657" clip-path="url(#clipPath2)" stroke="none">MaterialAggregate</text>
    </g>
    <g stroke-linecap="butt" transform="matrix(2,0,0,2,238,996)" fill="rgb(243,101,35)" text-rendering="geometricPrecision" shape-rendering="geometricPrecision" stroke="rgb(243,101,35)" stroke-miterlimit="1.45">
      <rect x="-71.1584" y="-277.3795" clip-path="url(#clipPath2)" fill="none" width="111.472" rx="4" ry="4" height="20"/>
    </g>
    <g stroke-linecap="butt" transform="matrix(2,0,0,2,238,996)" text-rendering="geometricPrecision" font-family="sans-serif" shape-rendering="geometricPrecision" font-weight="bold" stroke-miterlimit="1.45">
      <text x="-32.6723" xml:space="preserve" y="-22.6657" clip-path="url(#clipPath2)" stroke="none">Point</text>
    </g>
    <g stroke-linecap="butt" transform="matrix(2,0,0,2,238,996)" fill="rgb(243,101,35)" text-rendering="geometricPrecision" shape-rendering="geometricPrecision" stroke="rgb(243,101,35)" stroke-miterlimit="1.45">
      <rect x="-75.664" y="-37.3795" clip-path="url(#clipPath2)" fill="none" width="115.9776" rx="4" ry="4" height="20"/>
    </g>
    <g stroke-linecap="butt" transform="matrix(2,0,0,2,238,996)" text-rendering="geometricPrecision" font-family="sans-serif" shape-rendering="geometricPrecision" font-weight="bold" stroke-miterlimit="1.45">
      <text x="-56.7691" xml:space="preserve" y="-182.6657" clip-path="url(#clipPath2)" stroke="none">MaterialObject</text>
    </g>
    <g stroke-linecap="butt" transform="matrix(2,0,0,2,238,996)" fill="rgb(243,101,35)" text-rendering="geometricPrecision" shape-rendering="geometricPrecision" stroke="rgb(243,101,35)" stroke-miterlimit="1.45">
      <rect x="-71.1584" y="-197.3795" clip-path="url(#clipPath2)" fill="none" width="111.472" rx="4" ry="4" height="20"/>
    </g>
    <g stroke-linecap="butt" transform="matrix(2,0,0,2,238,996)" text-rendering="geometricPrecision" font-family="sans-serif" shape-rendering="geometricPrecision" font-weight="bold" stroke-miterlimit="1.45">
      <text x="-39.6859" xml:space="preserve" y="-102.6657" clip-path="url(#clipPath2)" stroke="none">Surface</text>
    </g>
    <g stroke-linecap="butt" transform="matrix(2,0,0,2,238,996)" fill="rgb(243,101,35)" text-rendering="geometricPrecision" shape-rendering="geometricPrecision" stroke="rgb(243,101,35)" stroke-miterlimit="1.45">
      <rect x="-75.664" y="-117.3795" clip-path="url(#clipPath2)" fill="none" width="115.9776" rx="4" ry="4" height="20"/>
    </g>
    <g fill="rgb(150,150,150)" text-rendering="geometricPrecision" shape-rendering="geometricPrecision" transform="matrix(2,0,0,2,238,996)" stroke="rgb(150,150,150)">
      <rect x="469.221" y="-465.6995" clip-path="url(#clipPath2)" width="70" rx="4" ry="4" height="20" stroke="none"/>
    </g>
    <g stroke-linecap="butt" transform="matrix(2,0,0,2,238,996)" fill="white" text-rendering="geometricPrecision" font-family="sans-serif" shape-rendering="geometricPrecision" stroke="white" font-weight="bold" stroke-miterlimit="1.45">
      <text x="476.2191" xml:space="preserve" y="-450.9857" clip-path="url(#clipPath2)" stroke="none">Individual</text>
    </g>
    <g stroke-linecap="butt" transform="matrix(2,0,0,2,238,996)" fill="rgb(150,150,150)" text-rendering="geometricPrecision" shape-rendering="geometricPrecision" stroke="rgb(150,150,150)" stroke-miterlimit="1.45">
      <rect x="469.221" y="-465.6995" clip-path="url(#clipPath2)" fill="none" width="70" rx="4" ry="4" height="20"/>
    </g>
    <g stroke-linecap="butt" transform="matrix(2,0,0,2,238,996)" text-rendering="geometricPrecision" font-family="sans-serif" shape-rendering="geometricPrecision" font-weight="bold" stroke-miterlimit="1.45">
      <text x="-49.7701" xml:space="preserve" y="-222.6657" clip-path="url(#clipPath2)" stroke="none">MaterialPart</text>
    </g>
    <g stroke-linecap="butt" transform="matrix(2,0,0,2,238,996)" fill="rgb(243,101,35)" text-rendering="geometricPrecision" shape-rendering="geometricPrecision" stroke="rgb(243,101,35)" stroke-miterlimit="1.45">
      <rect x="-71.1584" y="-237.3795" clip-path="url(#clipPath2)" fill="none" width="111.472" rx="4" ry="4" height="20"/>
    </g>
    <g stroke-linecap="butt" transform="matrix(2,0,0,2,238,996)" text-rendering="geometricPrecision" font-family="sans-serif" shape-rendering="geometricPrecision" font-weight="bold" stroke-miterlimit="1.45">
      <text x="-82.0092" xml:space="preserve" y="-302.6657" clip-path="url(#clipPath2)" stroke="none">MaterialContinuant</text>
    </g>
    <g stroke-linecap="butt" transform="matrix(2,0,0,2,238,996)" fill="rgb(243,101,35)" text-rendering="geometricPrecision" shape-rendering="geometricPrecision" stroke="rgb(243,101,35)" stroke-miterlimit="1.45">
      <rect x="-95.664" y="-317.3795" clip-path="url(#clipPath2)" fill="none" width="135.9776" rx="4" ry="4" height="20"/>
    </g>
    <g stroke-linecap="butt" transform="matrix(2,0,0,2,238,996)" text-rendering="geometricPrecision" font-family="sans-serif" shape-rendering="geometricPrecision" font-weight="bold" stroke-miterlimit="1.45">
      <text x="204.1101" xml:space="preserve" y="-142.6657" clip-path="url(#clipPath2)" stroke="none">SituationalRole</text>
    </g>
    <g stroke-linecap="butt" transform="matrix(2,0,0,2,238,996)" fill="rgb(73,114,136)" text-rendering="geometricPrecision" shape-rendering="geometricPrecision" stroke="rgb(73,114,136)" stroke-miterlimit="1.45">
      <rect x="185" y="-157.3795" clip-path="url(#clipPath2)" fill="none" width="125.56" rx="4" ry="4" height="20"/>
    </g>
  </g>
</svg>
