<?xml version="1.0" encoding="UTF-8"?><svg xmlns="http://www.w3.org/2000/svg" xmlns:xlink="http://www.w3.org/1999/xlink" fill-opacity="1" color-rendering="auto" color-interpolation="auto" text-rendering="auto" stroke="black" stroke-linecap="square" width="720" stroke-miterlimit="10" shape-rendering="auto" stroke-opacity="1" fill="black" stroke-dasharray="none" font-weight="normal" stroke-width="1" height="570" font-family="'Dialog'" font-style="normal" stroke-linejoin="miter" font-size="12px" stroke-dashoffset="0" image-rendering="auto">
  <!--Generated by ySVG 2.6-->
  <defs id="genericDefs"/>
  <g>
    <defs id="defs1">
      <clipPath clipPathUnits="userSpaceOnUse" id="clipPath1">
        <path d="M0 0 L720 0 L720 570 L0 570 L0 0 Z"/>
      </clipPath>
      <clipPath clipPathUnits="userSpaceOnUse" id="clipPath2">
        <path d="M-529 69 L-169 69 L-169 354 L-529 354 L-529 69 Z"/>
      </clipPath>
    </defs>
    <g fill="white" text-rendering="geometricPrecision" shape-rendering="geometricPrecision" transform="scale(2,2) translate(529,-69)" stroke="white">
      <rect x="-529" width="360" height="285" y="69" clip-path="url(#clipPath2)" stroke="none"/>
    </g>
    <g text-rendering="geometricPrecision" stroke-miterlimit="1.45" shape-rendering="geometricPrecision" transform="matrix(2,0,0,2,1058,-138)" stroke-linecap="butt">
      <path fill="none" d="M-251.4864 235.6685 L-251.4864 247.7044" clip-path="url(#clipPath2)"/>
      <path d="M-251.4864 227.6685 L-256.4864 239.6685 L-251.4864 236.6685 L-246.4864 239.6685 Z" clip-path="url(#clipPath2)" stroke="none"/>
      <text x="-320.1934" xml:space="preserve" y="242.4215" clip-path="url(#clipPath2)" font-family="sans-serif" stroke="none">boundaryOf</text>
      <path fill="none" d="M-307.1886 217.7076 L-400.7056 217.7076 L-400.7056 232.6685" clip-path="url(#clipPath2)"/>
      <path fill="white" d="M-400.7056 247.6685 L-394.7056 231.6685 L-406.7056 231.6685 Z" clip-path="url(#clipPath2)" stroke="none"/>
      <path fill="none" d="M-400.7056 247.6685 L-394.7056 231.6685 L-406.7056 231.6685 Z" clip-path="url(#clipPath2)"/>
      <path fill="none" d="M-307.2495 257.7076 L-317.2336 257.7076 L-317.7416 257.7076" clip-path="url(#clipPath2)"/>
      <path fill="white" d="M-332.7416 257.7076 L-316.7416 263.7076 L-316.7416 251.7076 Z" clip-path="url(#clipPath2)" stroke="none"/>
      <path fill="none" d="M-332.7416 257.7076 L-316.7416 263.7076 L-316.7416 251.7076 Z" clip-path="url(#clipPath2)"/>
      <path fill="none" d="M-307.1886 297.7076 L-400.7056 297.7076 L-400.7056 282.6685" clip-path="url(#clipPath2)"/>
      <path fill="white" d="M-400.7056 267.6685 L-406.7056 283.6685 L-394.7056 283.6685 Z" clip-path="url(#clipPath2)" stroke="none"/>
      <path fill="none" d="M-400.7056 267.6685 L-406.7056 283.6685 L-394.7056 283.6685 Z" clip-path="url(#clipPath2)"/>
      <path fill="none" d="M-251.4864 275.6685 L-251.4864 287.7043" clip-path="url(#clipPath2)"/>
      <path d="M-251.4864 267.6685 L-256.4864 279.6685 L-251.4864 276.6685 L-246.4864 279.6685 Z" clip-path="url(#clipPath2)" stroke="none"/>
      <text x="-320.1934" xml:space="preserve" y="282.4215" clip-path="url(#clipPath2)" font-family="sans-serif" stroke="none">boundaryOf</text>
      <path fill="none" d="M-251.4864 207.6832 L-251.4864 195.6897" clip-path="url(#clipPath2)"/>
      <path d="M-251.4864 187.6897 L-256.4864 199.6897 L-251.4864 196.6897 L-246.4864 199.6897 Z" clip-path="url(#clipPath2)" stroke="none"/>
      <rect x="-322.1934" y="188.357" clip-path="url(#clipPath2)" fill="white" width="66.707" height="18.7012" stroke="none"/>
      <text x="-320.1934" xml:space="preserve" y="202.4215" clip-path="url(#clipPath2)" font-family="sans-serif" stroke="none">boundaryOf</text>
      <path fill="none" d="M-251.4864 147.6685 L-251.4864 159.7044" clip-path="url(#clipPath2)"/>
      <path d="M-251.4864 167.7044 L-246.4864 155.7044 L-251.4864 158.7044 L-256.4864 155.7044 Z" clip-path="url(#clipPath2)" stroke="none"/>
      <text x="-290.8321" xml:space="preserve" y="162.4215" clip-path="url(#clipPath2)" font-family="sans-serif" stroke="none">partOf</text>
      <path fill="none" d="M-307.1886 102.7076 L-400.7056 102.7076 L-400.7056 112.6929" clip-path="url(#clipPath2)"/>
      <path fill="white" d="M-400.7056 127.6929 L-394.7056 111.6929 L-406.7056 111.6929 Z" clip-path="url(#clipPath2)" stroke="none"/>
      <path fill="none" d="M-400.7056 127.6929 L-394.7056 111.6929 L-406.7056 111.6929 Z" clip-path="url(#clipPath2)"/>
      <path fill="none" d="M-307.1886 177.7076 L-400.7056 177.7076 L-400.7056 162.6685" clip-path="url(#clipPath2)"/>
      <path fill="white" d="M-400.7056 147.6685 L-406.7056 163.6685 L-394.7056 163.6685 Z" clip-path="url(#clipPath2)" stroke="none"/>
      <path fill="none" d="M-400.7056 147.6685 L-406.7056 163.6685 L-394.7056 163.6685 Z" clip-path="url(#clipPath2)"/>
      <path fill="none" d="M-307.2133 92.7076 L-415.5825 92.7076 L-415.5825 119.6949" clip-path="url(#clipPath2)"/>
      <path d="M-415.5825 127.6949 L-410.5825 115.6949 L-415.5825 118.6949 L-420.5825 115.6949 Z" clip-path="url(#clipPath2)" stroke="none"/>
      <text x="-397.6436" xml:space="preserve" y="86.0709" clip-path="url(#clipPath2)" font-family="sans-serif" stroke="none">hasMember</text>
      <path fill="none" d="M-415.5825 247.6872 L-415.5825 155.7453" clip-path="url(#clipPath2)"/>
      <path d="M-415.5825 147.7453 L-420.5825 159.7453 L-415.5825 156.7453 L-410.5825 159.7453 Z" clip-path="url(#clipPath2)" stroke="none"/>
      <rect x="-444.9281" y="188.357" clip-path="url(#clipPath2)" fill="white" width="58.6914" height="18.7012" stroke="none"/>
      <text x="-442.9282" xml:space="preserve" y="202.4215" clip-path="url(#clipPath2)" font-family="sans-serif" stroke="none">hasOwner</text>
      <path fill="none" d="M-307.2383 137.7076 L-315.4527 137.7076 L-317.7407 137.7076" clip-path="url(#clipPath2)"/>
      <path fill="white" d="M-332.7407 137.7076 L-316.7407 143.7076 L-316.7407 131.7076 Z" clip-path="url(#clipPath2)" stroke="none"/>
      <path fill="none" d="M-332.7407 137.7076 L-316.7407 143.7076 L-316.7407 131.7076 Z" clip-path="url(#clipPath2)"/>
      <path fill="none" d="M-430.7056 127.732 L-430.7056 92.7076 L-488.8272 92.7076 L-488.8272 132.7076 L-476.7331 132.7076" clip-path="url(#clipPath2)"/>
      <path d="M-468.7331 132.7076 L-480.7331 127.7076 L-477.7331 132.7076 L-480.7331 137.7076 Z" clip-path="url(#clipPath2)" stroke="none"/>
      <text x="-484.118" xml:space="preserve" y="86.0709" clip-path="url(#clipPath2)" font-family="sans-serif" stroke="none">locatedIn</text>
      <path fill="none" d="M-468.7331 142.7076 L-488.8272 142.7076 L-488.8272 172.6905" clip-path="url(#clipPath2)"/>
      <path fill="white" d="M-488.8272 187.6905 L-482.8272 171.6905 L-494.8272 171.6905 Z" clip-path="url(#clipPath2)" stroke="none"/>
      <path fill="none" d="M-488.8272 187.6905 L-482.8272 171.6905 L-494.8272 171.6905 Z" clip-path="url(#clipPath2)"/>
      <path fill="none" d="M-468.7331 257.7076 L-488.8272 257.7076 L-488.8272 222.6978" clip-path="url(#clipPath2)"/>
      <path fill="white" d="M-488.8272 207.6978 L-494.8272 223.6978 L-482.8272 223.6978 Z" clip-path="url(#clipPath2)" stroke="none"/>
      <path fill="none" d="M-488.8272 207.6978 L-494.8272 223.6978 L-482.8272 223.6978 Z" clip-path="url(#clipPath2)"/>
      <path fill="none" d="M-195.7686 222.7076 L-172.408 222.7076 L-172.408 341.112 L-508.1309 341.112 L-508.1309 215.7123" clip-path="url(#clipPath2)"/>
      <path d="M-508.1309 207.7123 L-513.1309 219.7123 L-508.1309 216.7123 L-503.1309 219.7123 Z" clip-path="url(#clipPath2)" stroke="none"/>
      <path fill="none" d="M-195.7686 252.7076 L-172.408 252.7076 L-172.408 341.112 L-508.1309 341.112 L-508.1309 215.7068" clip-path="url(#clipPath2)"/>
      <path d="M-508.1309 207.7068 L-513.1309 219.7068 L-508.1309 216.7068 L-503.1309 219.7068 Z" clip-path="url(#clipPath2)" stroke="none"/>
      <rect x="-405.9697" y="331.7614" clip-path="url(#clipPath2)" fill="white" width="131.4004" height="18.7012" stroke="none"/>
      <text x="-403.9697" xml:space="preserve" y="345.8259" clip-path="url(#clipPath2)" font-family="sans-serif" stroke="none">spatiallyPassesThrough</text>
      <path fill="none" d="M-195.7502 262.7076 L-181.5 262.7076 L-181.5 324.2 L-508.1309 324.2 L-508.1309 215.7347" clip-path="url(#clipPath2)"/>
      <path d="M-508.1309 207.7347 L-513.1309 219.7347 L-508.1309 216.7347 L-503.1309 219.7347 Z" clip-path="url(#clipPath2)" stroke="none"/>
      <rect x="-437.1905" y="314.8494" clip-path="url(#clipPath2)" fill="white" width="184.75" height="18.7012" stroke="none"/>
      <text x="-435.1905" xml:space="preserve" y="328.9139" clip-path="url(#clipPath2)" font-family="sans-serif" stroke="none">spatiallyStartsOn/spatiallyEndsOn</text>
      <text x="-263.8204" y="262.4215" clip-path="url(#clipPath2)" font-family="sans-serif" stroke="none" font-weight="bold" xml:space="preserve">Line</text>
      <rect x="-307.2224" y="247.7076" clip-path="url(#clipPath2)" fill="none" width="111.472" rx="4" ry="4" height="20" stroke="rgb(243,101,35)"/>
      <text x="-462.3784" y="262.4215" clip-path="url(#clipPath2)" font-family="sans-serif" stroke="none" font-weight="bold" xml:space="preserve">ImmaterialContinuant</text>
      <rect x="-468.6944" y="247.7076" clip-path="url(#clipPath2)" fill="none" width="135.9776" rx="4" ry="4" height="20" stroke="rgb(243,101,35)"/>
      <text x="-303.834" y="102.4215" clip-path="url(#clipPath2)" font-family="sans-serif" stroke="none" font-weight="bold" xml:space="preserve">MaterialAggregate</text>
      <rect x="-307.2224" y="87.7076" clip-path="url(#clipPath2)" fill="none" width="111.472" rx="4" ry="4" height="20" stroke="rgb(243,101,35)"/>
      <text x="-266.4835" y="302.4215" clip-path="url(#clipPath2)" font-family="sans-serif" stroke="none" font-weight="bold" xml:space="preserve">Point</text>
      <rect x="-307.2224" y="287.7076" clip-path="url(#clipPath2)" fill="none" width="111.472" rx="4" ry="4" height="20" stroke="rgb(243,101,35)"/>
      <text x="-292.8331" y="182.4215" clip-path="url(#clipPath2)" font-family="sans-serif" stroke="none" font-weight="bold" xml:space="preserve">MaterialObject</text>
      <rect x="-307.2224" y="167.7076" clip-path="url(#clipPath2)" fill="none" width="111.472" rx="4" ry="4" height="20" stroke="rgb(243,101,35)"/>
      <text x="-273.4971" y="222.4215" clip-path="url(#clipPath2)" font-family="sans-serif" stroke="none" font-weight="bold" xml:space="preserve">Surface</text>
      <rect x="-307.2224" y="207.7076" clip-path="url(#clipPath2)" fill="none" width="111.472" rx="4" ry="4" height="20" stroke="rgb(243,101,35)"/>
      <text x="-285.834" y="142.4215" clip-path="url(#clipPath2)" font-family="sans-serif" stroke="none" font-weight="bold" xml:space="preserve">MaterialPart</text>
      <rect x="-307.2224" y="127.7076" clip-path="url(#clipPath2)" fill="none" width="111.472" rx="4" ry="4" height="20" stroke="rgb(243,101,35)"/>
      <text x="-455.0396" y="142.4215" clip-path="url(#clipPath2)" font-family="sans-serif" stroke="none" font-weight="bold" xml:space="preserve">MaterialContinuant</text>
      <rect x="-468.6944" y="127.7076" clip-path="url(#clipPath2)" fill="none" width="135.9776" rx="4" ry="4" height="20" stroke="rgb(243,101,35)"/>
    </g>
    <g fill="rgb(243,101,35)" text-rendering="geometricPrecision" shape-rendering="geometricPrecision" transform="matrix(2,0,0,2,1058,-138)" stroke="rgb(243,101,35)">
      <rect x="-525.344" y="187.7076" clip-path="url(#clipPath2)" width="73.0336" rx="4" ry="4" height="20" stroke="none"/>
    </g>
    <g stroke-linecap="butt" transform="matrix(2,0,0,2,1058,-138)" fill="white" text-rendering="geometricPrecision" font-family="sans-serif" shape-rendering="geometricPrecision" stroke="white" font-weight="bold" stroke-miterlimit="1.45">
      <text x="-520.4854" xml:space="preserve" y="202.4215" clip-path="url(#clipPath2)" stroke="none">Continuant</text>
    </g>
    <g stroke-linecap="butt" transform="matrix(2,0,0,2,1058,-138)" fill="rgb(243,101,35)" text-rendering="geometricPrecision" shape-rendering="geometricPrecision" stroke="rgb(243,101,35)" stroke-miterlimit="1.45">
      <rect x="-525.344" y="187.7076" clip-path="url(#clipPath2)" fill="none" width="73.0336" rx="4" ry="4" height="20"/>
    </g>
  </g>
</svg>
